<svg width="40" height="40" viewBox="0 0 40 40" fill="none" xmlns="http://www.w3.org/2000/svg">
<path d="M24.4497 20.3394L29.2536 12.8843L32.7341 15.2161L27.9302 22.6712C27.8057 22.8644 27.6299 23.0177 27.4233 23.1129L25.9154 23.8084C25.1155 24.1773 24.2112 23.5715 24.2258 22.6764L24.2533 20.9891C24.2571 20.758 24.3252 20.5327 24.4497 20.3394Z" fill="#8C818F"/>
<path d="M28.0674 14.7153L29.2527 12.8749L32.7342 15.2062L31.5489 17.0466L28.0674 14.7153Z" fill="#766D78"/>
<path d="M31.1885 11.1584L34.9948 5.24829L37.3158 6.80249L33.5095 12.7126L31.1885 11.1584Z" fill="#C77E67"/>
<path d="M28.783 10.2636L28.0648 11.3781C27.8885 11.6519 27.9631 12.0197 28.2315 12.1995L33.7562 15.9009C34.0247 16.0808 34.3854 16.0047 34.5617 15.7309L35.2799 14.6163C35.4563 14.3426 35.3817 13.9748 35.1132 13.7949L29.5886 10.0936C29.3201 9.91372 28.9594 9.98981 28.783 10.2636Z" fill="#EEC06B"/>
<path d="M37.6399 7.55871C38.4173 6.69449 38.3605 5.35129 37.5129 4.5586C36.6654 3.7659 35.3481 3.82389 34.5707 4.68811C33.7933 5.55234 33.8502 6.89553 34.6977 7.68823C35.5453 8.48092 36.8625 8.42293 37.6399 7.55871Z" fill="#EEC06B"/>
<path d="M20.1953 22.8948C23.9094 22.8948 26.9203 19.8246 26.9203 16.0375V13.1769C26.9203 9.38975 23.9094 6.31958 20.1953 6.31958C16.4812 6.31958 13.4702 9.38975 13.4702 13.1769V16.0375C13.4703 19.8246 16.4812 22.8948 20.1953 22.8948Z" fill="#80B6FC"/>
<path d="M20.1951 6.31958C19.76 6.31958 19.3349 6.36219 18.9229 6.44265C22.0286 7.04912 24.3757 9.83332 24.3757 13.1769V16.0375C24.3757 19.3812 22.0286 22.1653 18.9229 22.7717C19.3349 22.8522 19.76 22.8948 20.1951 22.8948C23.9092 22.8948 26.9201 19.8246 26.9201 16.0375V13.1769C26.92 9.38975 23.9092 6.31958 20.1951 6.31958Z" fill="#62A4FB"/>
<path d="M22.8819 13.6572C22.8819 14.9774 21.8323 16.0476 20.5376 16.0476H14.5402C13.9529 16.0476 13.4764 15.5632 13.4745 14.9643C13.472 14.151 13.4718 12.9918 13.4754 12.8999C13.5116 11.9865 14.2523 11.2666 15.1489 11.2666H20.5376C21.8323 11.2667 22.8819 12.3369 22.8819 13.6572Z" fill="#FFCDBE"/>
<path d="M18.7833 14.3742C18.4677 14.3742 18.2119 14.1134 18.2119 13.7916V13.5226C18.2119 13.2007 18.4677 12.9399 18.7833 12.9399C19.0989 12.9399 19.3547 13.2008 19.3547 13.5226V13.7916C19.3547 14.1134 19.0989 14.3742 18.7833 14.3742Z" fill="#655E67"/>
<path d="M15.4908 14.3742C15.1753 14.3742 14.9194 14.1134 14.9194 13.7916V13.5226C14.9194 13.2007 15.1753 12.9399 15.4908 12.9399C15.8064 12.9399 16.0622 13.2008 16.0622 13.5226V13.7916C16.0622 14.1134 15.8064 14.3742 15.4908 14.3742Z" fill="#655E67"/>
<path d="M2.52148 25.6892V36.2286C2.52148 36.4705 2.71385 36.6666 2.9511 36.6666H36.1475C36.3848 36.6666 36.5772 36.4705 36.5772 36.2286V25.6892H2.52148Z" fill="#C77E67"/>
<path d="M2.52148 25.6892V27.5518H33.2504C34.0869 27.5518 34.7649 28.2432 34.7649 29.0961V36.2285C34.7649 36.4704 34.5726 36.6665 34.3353 36.6665H36.1475C36.3847 36.6665 36.5771 36.4704 36.5771 36.1408V25.6892H2.52148Z" fill="#BE694E"/>
<path d="M1.91522 21.0996H37.8552C38.3871 21.0996 38.8182 21.5393 38.8182 22.0816V24.7072C38.8182 25.2496 38.3871 25.6893 37.8552 25.6893H1.91522C1.38332 25.6893 0.952148 25.2496 0.952148 24.7072V22.0816C0.952148 21.5393 1.38332 21.0996 1.91522 21.0996Z" fill="#E2BCB0"/>
<path d="M29.9255 22.587H32.222V18.9153H29.9255C29.2051 18.9153 28.6211 19.5108 28.6211 20.2454V21.2569C28.6211 21.9915 29.2051 22.587 29.9255 22.587Z" fill="#62A4FB"/>
<path d="M35.1007 23.3078H33.5249C32.1043 23.3078 30.9526 22.1335 30.9526 20.6849V19.9955C30.9526 19.0949 31.6687 18.3647 32.552 18.3647H36.0737C36.957 18.3647 37.673 19.0949 37.673 19.9955V20.6849C37.673 22.1335 36.5214 23.3078 35.1007 23.3078Z" fill="#80B6FC"/>
<path d="M9.84478 22.587H7.54834V18.9153H9.84478C10.5652 18.9153 11.1492 19.5108 11.1492 20.2454V21.2569C11.1492 21.9915 10.5652 22.587 9.84478 22.587Z" fill="#62A4FB"/>
<path d="M4.66947 23.3078H6.24527C7.66591 23.3078 8.81757 22.1335 8.81757 20.6849V19.9955C8.81757 19.0949 8.10152 18.3647 7.21825 18.3647H3.69649C2.81322 18.3647 2.09717 19.0949 2.09717 19.9955V20.6849C2.09717 22.1335 3.24883 23.3078 4.66947 23.3078Z" fill="#80B6FC"/>
<path d="M36.5771 32.6451H33.9903V29.7108H36.5771V28.5454H27.8104V25.6892H26.6675V28.5454H13.1161V25.6892H11.9732V28.5454H2.52148V29.7108H5.79334V32.6451H2.52148V33.8105H11.9733V36.6666H13.1161V33.8105H26.6675V36.6666H27.8104V33.8105H36.5771V32.6451ZM19.3204 32.6451H6.93613V29.7108H19.3204V32.6451ZM32.8475 32.6451H20.4632V29.7108H32.8475V32.6451Z" fill="#AC583E"/>
</svg>
