<svg width="40" height="40" viewBox="0 0 40 40" fill="none" xmlns="http://www.w3.org/2000/svg">
<path d="M19 3.54688C9.61114 3.54688 2 11.2595 2 20.7734C2 24.6129 3.2401 28.1584 5.33575 31.0226H5.40513V23.1323L5.34872 23.1214C4.79563 23.0147 4.39416 22.524 4.39416 21.9547V19.7301C4.39416 19.0749 4.92018 18.5419 5.56681 18.5419H20.9336C21.5803 18.5419 22.1063 19.0749 22.1063 19.7301V21.9547C22.1063 22.5241 21.7048 23.0147 21.1517 23.1214L21.0953 23.1323V26.6489H32.4331C33.0797 26.6489 33.6058 27.1819 33.6058 27.8372V29.4761L33.6752 29.4723C35.1523 26.9191 36 23.9468 36 20.7734C36 11.2595 28.3889 3.54688 19 3.54688Z" fill="#8AC9FE"/>
<path d="M22.1067 19.7303V21.9548C22.1067 22.5242 21.7052 23.0148 21.1521 23.1215L21.0957 23.1324V26.649H32.2787C31.688 24.478 29.7265 22.8829 27.3963 22.8829C27.1172 22.8829 26.8438 22.9067 26.577 22.9507C25.9982 20.8924 24.1846 19.3624 21.9991 19.2361C22.0675 19.3868 22.1067 19.5538 22.1067 19.7303Z" fill="white"/>
<path d="M20.421 30.6147L20.3597 30.4977L20.2984 30.6147C20.0932 31.0066 19.6961 31.25 19.2621 31.25C18.828 31.25 18.4309 31.0066 18.2258 30.6147L18.1644 30.4977L18.1031 30.6147C17.8978 31.0066 17.5007 31.25 17.0667 31.25C16.4201 31.25 15.894 30.7169 15.894 30.0617V27.8372C15.894 27.1819 16.4201 26.6489 17.0667 26.6489H21.165V23.1196C21.0903 23.1348 21.0131 23.143 20.934 23.143C20.4999 23.143 20.1028 22.8996 19.8975 22.5078L19.8362 22.3907L19.7749 22.5078C19.5697 22.8996 19.1726 23.143 18.7386 23.143C18.3046 23.143 17.9075 22.8996 17.7023 22.5078L17.641 22.3907L17.5797 22.5078C17.3744 22.8996 16.9773 23.143 16.5432 23.143C16.1092 23.143 15.7121 22.8996 15.5069 22.5078L15.4456 22.3907L15.3843 22.5078C15.179 22.8996 14.7819 23.143 14.3479 23.143C13.9139 23.143 13.5168 22.8996 13.3116 22.5078L13.2502 22.3907L13.189 22.5078C12.9836 22.8996 12.5865 23.143 12.1525 23.143C11.7185 23.143 11.3214 22.8996 11.1162 22.5078L11.0554 22.3906L10.9941 22.5077C10.7889 22.8995 10.3918 23.143 9.95772 23.143C9.5237 23.143 9.12659 22.8995 8.92141 22.5077L8.86007 22.3906L8.79873 22.5077C8.59355 22.8995 8.19645 23.143 7.76243 23.143C7.32841 23.143 6.9313 22.8995 6.72598 22.5077L6.66471 22.3906L6.60337 22.5077C6.39819 22.8995 6.00109 23.143 5.56707 23.143C5.48797 23.143 5.41074 23.1347 5.33594 23.1196V31.0225C8.43355 35.2558 13.4005 38 19.0005 38C19.7338 38 20.4563 37.953 21.1652 37.8616V31.2118C20.8506 31.1293 20.579 30.9162 20.421 30.6147Z" fill="#D88A55"/>
<path d="M6.72598 22.5077L6.66471 22.3906L6.60337 22.5077C6.39819 22.8995 6.00109 23.143 5.56707 23.143C5.48797 23.143 5.41074 23.1347 5.33594 23.1196V31.0225C6.03113 31.9725 6.8207 32.8472 7.69013 33.6331V23.1404C7.28469 23.1151 6.91985 22.8776 6.72598 22.5077Z" fill="#C57A44"/>
<path d="M20.9336 18.4719H5.56675C4.88363 18.4719 4.32471 19.0383 4.32471 19.7305V21.955C4.32471 22.6472 4.88363 23.2136 5.56675 23.2136C6.04136 23.2136 6.45547 22.9399 6.66439 22.541C6.87332 22.94 7.28743 23.2136 7.76204 23.2136C8.23665 23.2136 8.65076 22.9399 8.85968 22.541C9.06861 22.94 9.48272 23.2136 9.95733 23.2136C10.4319 23.2136 10.846 22.9399 11.055 22.541C11.2639 22.94 11.678 23.2136 12.1526 23.2136C12.6272 23.2136 13.0413 22.9399 13.2503 22.541C13.4592 22.94 13.8733 23.2136 14.3479 23.2136C14.8224 23.2136 15.2366 22.9399 15.4456 22.541C15.6545 22.94 16.0686 23.2136 16.5432 23.2136C17.0178 23.2136 17.4319 22.9399 17.6408 22.541C17.8498 22.94 18.2639 23.2136 18.7385 23.2136C19.2131 23.2136 19.6272 22.9399 19.8361 22.541C20.0451 22.94 20.4592 23.2136 20.9338 23.2136C21.6169 23.2136 22.1758 22.6472 22.1758 21.955V19.7304C22.1756 19.0383 21.6167 18.4719 20.9336 18.4719Z" fill="#97D729"/>
<path d="M7.39394 21.9548V19.7303C7.39394 19.038 7.95285 18.4717 8.63598 18.4717H5.56675C4.88363 18.4717 4.32471 19.038 4.32471 19.7303V21.9548C4.32471 22.647 4.88363 23.2134 5.56675 23.2134C6.04129 23.2134 6.45547 22.9398 6.66439 22.5408C6.87332 22.9398 7.28743 23.2134 7.76204 23.2134C7.91622 23.2134 8.06381 23.1841 8.20022 23.1314C7.73067 22.9515 7.39394 22.4917 7.39394 21.9548Z" fill="#8BC727"/>
<path d="M32.4335 31.2499C31.9994 31.2499 31.6023 31.0065 31.3972 30.6146L31.3358 30.4976L31.2746 30.6146C31.0692 31.0065 30.6721 31.2499 30.2381 31.2499C29.8041 31.2499 29.407 31.0065 29.2018 30.6146L29.1405 30.4976L29.0791 30.6146C28.8739 31.0065 28.4768 31.2499 28.0428 31.2499C27.6087 31.2499 27.2116 31.0065 27.0064 30.6146L26.9451 30.4976L26.8838 30.6146C26.6786 31.0065 26.2815 31.2499 25.8475 31.2499C25.4134 31.2499 25.0163 31.0065 24.811 30.6146L24.7497 30.4976L24.6884 30.6146C24.4832 31.0065 24.0861 31.2499 23.6521 31.2499C23.2181 31.2499 22.821 31.0065 22.6157 30.6146L22.5544 30.4976L22.493 30.6146C22.2879 31.0065 21.8908 31.2499 21.4567 31.2499C21.0227 31.2499 20.6256 31.0065 20.4203 30.6146L20.359 30.4976L20.2977 30.6146C20.0925 31.0065 19.6954 31.2499 19.2614 31.2499C18.8274 31.2499 18.4303 31.0065 18.2251 30.6146L18.1637 30.4976L18.1025 30.6146C17.8971 31.0065 17.5 31.2499 17.066 31.2499C16.9869 31.2499 16.9097 31.2417 16.835 31.2265V37.8615C17.5445 37.9529 18.2669 37.9999 19.0003 37.9999C24.5007 37.9999 29.3903 35.3522 32.4975 31.2466C32.4761 31.2478 32.455 31.2499 32.4335 31.2499Z" fill="#F6A96C"/>
<path d="M18.2256 30.6146L18.1642 30.4976L18.103 30.6146C17.8976 31.0065 17.5005 31.2499 17.0665 31.2499C16.9874 31.2499 16.9102 31.2417 16.8354 31.2265V37.8615C17.5444 37.9529 18.2668 37.9999 19.0002 37.9999C19.0466 37.9999 19.0927 37.9992 19.139 37.9988V31.2427C18.754 31.2015 18.4112 30.9691 18.2256 30.6146Z" fill="#EA9B58"/>
<path d="M32.4336 26.5786H17.0667C16.3836 26.5786 15.8247 27.145 15.8247 27.8372V30.0618C15.8247 30.754 16.3836 31.3203 17.0667 31.3203C17.5414 31.3203 17.9555 31.0467 18.1644 30.6477C18.3733 31.0468 18.7874 31.3203 19.262 31.3203C19.7366 31.3203 20.1508 31.0467 20.3597 30.6477C20.5686 31.0468 20.9827 31.3203 21.4573 31.3203C21.9319 31.3203 22.346 31.0467 22.555 30.6477C22.7639 31.0468 23.178 31.3203 23.6526 31.3203C24.1272 31.3203 24.5413 31.0467 24.7503 30.6477C24.9592 31.0468 25.3733 31.3203 25.8479 31.3203C26.3224 31.3203 26.7366 31.0467 26.9456 30.6477C27.1545 31.0468 27.5686 31.3203 28.0432 31.3203C28.5178 31.3203 28.9319 31.0467 29.1408 30.6477C29.3498 31.0468 29.7639 31.3203 30.2385 31.3203C30.7131 31.3203 31.1272 31.0467 31.3361 30.6477C31.5451 31.0468 31.9592 31.3203 32.4338 31.3203C33.1169 31.3203 33.6758 30.754 33.6758 30.0618V27.8372C33.6756 27.145 33.1167 26.5786 32.4336 26.5786Z" fill="#97D729"/>
<path d="M18.9127 30.0618V27.8372C18.9127 27.145 19.4717 26.5786 20.1548 26.5786H17.0667C16.3836 26.5786 15.8247 27.145 15.8247 27.8372V30.0618C15.8247 30.754 16.3836 31.3203 17.0667 31.3203C17.5414 31.3203 17.9555 31.0467 18.1644 30.6477C18.3733 31.0468 18.7874 31.3203 19.262 31.3203C19.4196 31.3203 19.5703 31.2896 19.7092 31.2347C19.2448 31.0521 18.9127 30.5949 18.9127 30.0618Z" fill="#8BC727"/>
<path d="M25.0368 25.9062C26.2631 25.9062 27.2572 24.8989 27.2572 23.6562C27.2572 22.4136 26.2631 21.4062 25.0368 21.4062C23.8105 21.4062 22.8164 22.4136 22.8164 23.6562C22.8164 24.8989 23.8105 25.9062 25.0368 25.9062Z" fill="#FED402"/>
<path d="M23.9266 23.6562C23.9266 22.6078 24.6342 21.7269 25.5919 21.4771C25.4145 21.4309 25.2285 21.4062 25.0368 21.4062C23.8105 21.4062 22.8164 22.4136 22.8164 23.6562C22.8164 24.8989 23.8105 25.9062 25.0368 25.9062C25.2285 25.9062 25.4145 25.8816 25.5919 25.8354C24.6342 25.5856 23.9266 24.7047 23.9266 23.6562Z" fill="#FAC600"/>
<path d="M25.0368 24.5C25.4966 24.5 25.8694 24.1222 25.8694 23.6562C25.8694 23.1903 25.4966 22.8125 25.0368 22.8125C24.5769 22.8125 24.2041 23.1903 24.2041 23.6562C24.2041 24.1222 24.5769 24.5 25.0368 24.5Z" fill="#E8B800"/>
<path d="M30.5881 25.9062C31.8144 25.9062 32.8085 24.8989 32.8085 23.6562C32.8085 22.4136 31.8144 21.4062 30.5881 21.4062C29.3618 21.4062 28.3677 22.4136 28.3677 23.6562C28.3677 24.8989 29.3618 25.9062 30.5881 25.9062Z" fill="#FED402"/>
<path d="M29.4779 23.6562C29.4779 22.6078 30.1855 21.7269 31.1432 21.4771C30.9658 21.4309 30.7797 21.4062 30.5881 21.4062C29.3618 21.4062 28.3677 22.4136 28.3677 23.6562C28.3677 24.8989 29.3618 25.9062 30.5881 25.9062C30.7797 25.9062 30.9658 25.8816 31.1432 25.8354C30.1855 25.5856 29.4779 24.7047 29.4779 23.6562Z" fill="#FAC600"/>
<path d="M30.588 24.5C31.0479 24.5 31.4207 24.1222 31.4207 23.6562C31.4207 23.1903 31.0479 22.8125 30.588 22.8125C30.1282 22.8125 29.7554 23.1903 29.7554 23.6562C29.7554 24.1222 30.1282 24.5 30.588 24.5Z" fill="#E8B800"/>
<path d="M4.72737 13.4823C5.21801 12.9851 6.01347 12.9851 6.50405 13.4823L7.13395 14.1206L7.76385 13.4823C8.25449 12.9851 9.04988 12.9851 9.54052 13.4823C10.0312 13.9794 10.0312 14.7854 9.54052 15.2826L7.35134 17.501C7.23123 17.6227 7.03653 17.6227 6.91642 17.501L4.72723 15.2826C4.23673 14.7855 4.23673 13.9794 4.72737 13.4823Z" fill="#FE5694"/>
<path d="M6.46663 14.8187C6.05842 14.405 5.99111 13.7781 6.26214 13.2926C5.77927 12.9982 5.14375 13.0606 4.72736 13.4826C4.23671 13.9798 4.23671 14.7858 4.72736 15.2829L6.91654 17.5013C7.03665 17.623 7.23135 17.623 7.35146 17.5013L8.23276 16.6083L6.46663 14.8187Z" fill="#FD3581"/>
<path d="M14.7004 6.5C15.9267 6.5 16.9208 5.49264 16.9208 4.25C16.9208 3.00736 15.9267 2 14.7004 2C13.4741 2 12.48 3.00736 12.48 4.25C12.48 5.49264 13.4741 6.5 14.7004 6.5Z" fill="#FED402"/>
<path d="M13.5902 4.25C13.5902 3.20157 14.2978 2.32063 15.2555 2.07088C15.0781 2.02461 14.892 2 14.7004 2C13.4741 2 12.48 3.00737 12.48 4.25C12.48 5.49263 13.4741 6.5 14.7004 6.5C14.892 6.5 15.0781 6.47539 15.2555 6.42912C14.2978 6.17938 13.5902 5.29843 13.5902 4.25Z" fill="#FAC600"/>
<path d="M14.7003 5.09375C15.1602 5.09375 15.533 4.71599 15.533 4.25C15.533 3.78401 15.1602 3.40625 14.7003 3.40625C14.2405 3.40625 13.8677 3.78401 13.8677 4.25C13.8677 4.71599 14.2405 5.09375 14.7003 5.09375Z" fill="#E8B800"/>
<path d="M20.3234 6.5C21.5497 6.5 22.5438 5.49264 22.5438 4.25C22.5438 3.00736 21.5497 2 20.3234 2C19.0971 2 18.103 3.00736 18.103 4.25C18.103 5.49264 19.0971 6.5 20.3234 6.5Z" fill="#FED402"/>
<path d="M19.2132 4.25C19.2132 3.20157 19.9208 2.32063 20.8785 2.07088C20.7011 2.02461 20.5151 2 20.3234 2C19.0971 2 18.103 3.00737 18.103 4.25C18.103 5.49263 19.0971 6.5 20.3234 6.5C20.5151 6.5 20.7011 6.47539 20.8785 6.42912C19.9208 6.17938 19.2132 5.29843 19.2132 4.25Z" fill="#FAC600"/>
<path d="M20.3234 5.09375C20.7832 5.09375 21.156 4.71599 21.156 4.25C21.156 3.78401 20.7832 3.40625 20.3234 3.40625C19.8635 3.40625 19.4907 3.78401 19.4907 4.25C19.4907 4.71599 19.8635 5.09375 20.3234 5.09375Z" fill="#E8B800"/>
<path d="M25.946 6.5C27.1723 6.5 28.1664 5.49264 28.1664 4.25C28.1664 3.00736 27.1723 2 25.946 2C24.7197 2 23.7256 3.00736 23.7256 4.25C23.7256 5.49264 24.7197 6.5 25.946 6.5Z" fill="#FED402"/>
<path d="M24.8358 4.25C24.8358 3.20157 25.5434 2.32063 26.5011 2.07088C26.3237 2.02461 26.1376 2 25.946 2C24.7197 2 23.7256 3.00737 23.7256 4.25C23.7256 5.49263 24.7197 6.5 25.946 6.5C26.1376 6.5 26.3237 6.47539 26.5011 6.42912C25.5434 6.17938 24.8358 5.29843 24.8358 4.25Z" fill="#FAC600"/>
<path d="M25.9459 5.09375C26.4058 5.09375 26.7786 4.71599 26.7786 4.25C26.7786 3.78401 26.4058 3.40625 25.9459 3.40625C25.4861 3.40625 25.1133 3.78401 25.1133 4.25C25.1133 4.71599 25.4861 5.09375 25.9459 5.09375Z" fill="#E8B800"/>
<path d="M13.4496 14.7265H27.197C27.7718 14.7265 28.2378 14.2542 28.2378 13.6718V11.2577C28.163 11.2729 28.0858 11.2812 28.0067 11.2812C27.5727 11.2812 27.1756 11.0377 26.9704 10.6459L26.9091 10.5288L26.8478 10.6459C26.6425 11.0377 26.2454 11.2812 25.8113 11.2812C25.3773 11.2812 24.9802 11.0377 24.775 10.6459L24.7137 10.5288L24.6524 10.6459C24.4472 11.0377 24.05 11.2812 23.616 11.2812C23.182 11.2812 22.7849 11.0377 22.5797 10.6459L22.5183 10.5288L22.4571 10.6459C22.2518 11.0377 21.8547 11.2812 21.4206 11.2812C20.9866 11.2812 20.5895 11.0377 20.3843 10.6459L20.323 10.5288L20.2616 10.6459C20.0565 11.0377 19.6594 11.2812 19.2253 11.2812C18.7913 11.2812 18.3941 11.0377 18.189 10.6459L18.1276 10.5288L18.0663 10.6459C17.8611 11.0377 17.464 11.2812 17.03 11.2812C16.596 11.2812 16.1988 11.0377 15.9935 10.6459L15.9323 10.5288L15.8709 10.6459C15.6658 11.0377 15.2686 11.2812 14.8346 11.2812C14.4006 11.2812 14.0034 11.0377 13.7982 10.6459L13.7369 10.5288L13.6756 10.6459C13.4704 11.0377 13.0733 11.2812 12.6393 11.2812C12.5602 11.2812 12.4829 11.2729 12.4082 11.2577V13.6718C12.4088 14.2542 12.8748 14.7265 13.4496 14.7265Z" fill="#F6A96C"/>
<path d="M18.5165 12.8984H17.2675C16.9813 12.8984 16.7471 12.6611 16.7471 12.3711C16.7471 12.0811 16.9813 11.8438 17.2675 11.8438H18.5165C18.8027 11.8438 19.0369 12.0811 19.0369 12.3711C19.0369 12.6611 18.8027 12.8984 18.5165 12.8984Z" fill="#EA9B58"/>
<path d="M13.4495 14.7265H15.7759C15.2011 14.7265 14.7351 14.2542 14.7351 13.6718V11.2763C14.3409 11.2421 13.988 11.0074 13.7987 10.6459L13.7374 10.5288L13.6761 10.6459C13.4709 11.0377 13.0738 11.2812 12.6398 11.2812C12.5607 11.2812 12.4834 11.2729 12.4087 11.2577V13.6718C12.4087 14.2542 12.8747 14.7265 13.4495 14.7265Z" fill="#EA9B58"/>
<path d="M28.0063 7.17944H12.6395C11.9564 7.17944 11.3975 7.74581 11.3975 8.43804V10.0931C11.3975 10.7853 11.9564 11.3516 12.6395 11.3516C13.1141 11.3516 13.5282 11.078 13.7371 10.679C13.9461 11.0781 14.3602 11.3516 14.8348 11.3516C15.3094 11.3516 15.7235 11.078 15.9324 10.679C16.1414 11.0781 16.5555 11.3516 17.0301 11.3516C17.5047 11.3516 17.9188 11.078 18.1277 10.679C18.3367 11.0781 18.7508 11.3516 19.2254 11.3516C19.7 11.3516 20.1141 11.078 20.323 10.679C20.5319 11.0781 20.946 11.3516 21.4207 11.3516C21.8952 11.3516 22.3094 11.078 22.5183 10.679C22.7272 11.0781 23.1413 11.3516 23.616 11.3516C24.0905 11.3516 24.5047 11.078 24.7136 10.679C24.9225 11.0781 25.3366 11.3516 25.8112 11.3516C26.2859 11.3516 26.7 11.078 26.9089 10.679C27.1178 11.0781 27.5319 11.3516 28.0065 11.3516C28.6897 11.3516 29.2486 10.7853 29.2486 10.0931V8.43804C29.2484 7.74581 28.6895 7.17944 28.0063 7.17944Z" fill="#97D729"/>
<path d="M14.6472 10.0931V8.43804C14.6472 7.74581 15.2061 7.17944 15.8892 7.17944H12.6395C11.9564 7.17944 11.3975 7.74581 11.3975 8.43804V10.0931C11.3975 10.7853 11.9564 11.3516 12.6395 11.3516C13.1141 11.3516 13.5282 11.078 13.7371 10.679C13.9461 11.0781 14.3602 11.3516 14.8348 11.3516C15.0235 11.3516 15.2023 11.3078 15.3627 11.2306C14.9412 11.0288 14.6472 10.5946 14.6472 10.0931Z" fill="#8BC727"/>
<path d="M25.2474 13.6016H23.9984C23.7122 13.6016 23.478 13.3643 23.478 13.0742C23.478 12.7842 23.7122 12.5469 23.9984 12.5469H25.2474C25.5336 12.5469 25.7678 12.7842 25.7678 13.0742C25.7678 13.3643 25.5336 13.6016 25.2474 13.6016Z" fill="#EA9B58"/>
<path d="M10.9739 13.4823C11.4645 12.9851 12.26 12.9851 12.7506 13.4823L13.3805 14.1206L14.0104 13.4823C14.501 12.9851 15.2964 12.9851 15.7871 13.4823C16.2777 13.9794 16.2777 14.7854 15.7871 15.2826L13.5979 17.501C13.4778 17.6227 13.2831 17.6227 13.1629 17.501L10.9738 15.2826C10.4833 14.7855 10.4833 13.9794 10.9739 13.4823Z" fill="#FE5694"/>
<path d="M12.7132 14.8187C12.305 14.405 12.2377 13.7781 12.5087 13.2926C12.0259 12.9982 11.3903 13.0606 10.9739 13.4826C10.4833 13.9798 10.4833 14.7858 10.9739 15.2829L13.1631 17.5013C13.2832 17.623 13.4779 17.623 13.598 17.5013L14.4793 16.6083L12.7132 14.8187Z" fill="#FD3581"/>
<path d="M17.2205 13.4823C17.7111 12.9851 18.5066 12.9851 18.9972 13.4823L19.6271 14.1206L20.257 13.4823C20.7476 12.9851 21.543 12.9851 22.0336 13.4823C22.5243 13.9794 22.5243 14.7854 22.0336 15.2826L19.8445 17.501C19.7243 17.6227 19.5296 17.6227 19.4095 17.501L17.2203 15.2826C16.7299 14.7855 16.7299 13.9794 17.2205 13.4823Z" fill="#FE5694"/>
<path d="M18.9598 14.8187C18.5516 14.405 18.4843 13.7781 18.7553 13.2926C18.2724 12.9982 17.6369 13.0606 17.2205 13.4826C16.7299 13.9798 16.7299 14.7858 17.2205 15.2829L19.4097 17.5013C19.5298 17.623 19.7245 17.623 19.8446 17.5013L20.7259 16.6083L18.9598 14.8187Z" fill="#FD3581"/>
<path d="M10.9159 25.4844H9.66689C9.38067 25.4844 9.14648 25.2471 9.14648 24.957C9.14648 24.667 9.38067 24.4297 9.66689 24.4297H10.9159C11.2021 24.4297 11.4363 24.667 11.4363 24.957C11.4363 25.2471 11.2021 25.4844 10.9159 25.4844Z" fill="#F6A96C"/>
<path d="M13.9696 27.9453H12.7206C12.4344 27.9453 12.2002 27.708 12.2002 27.418C12.2002 27.1279 12.4344 26.8906 12.7206 26.8906H13.9696C14.2558 26.8906 14.49 27.1279 14.49 27.418C14.49 27.708 14.2558 27.9453 13.9696 27.9453Z" fill="#C57A44"/>
<path d="M18.3412 25.5547H17.0922C16.806 25.5547 16.5718 25.3174 16.5718 25.0273C16.5718 24.7373 16.806 24.5 17.0922 24.5H18.3412C18.6274 24.5 18.8616 24.7373 18.8616 25.0273C18.8616 25.3174 18.6274 25.5547 18.3412 25.5547Z" fill="#F6A96C"/>
<path d="M10.7777 32.2344H9.52871C9.24248 32.2344 9.0083 31.9971 9.0083 31.707C9.0083 31.417 9.24248 31.1797 9.52871 31.1797H10.7777C11.0639 31.1797 11.2981 31.417 11.2981 31.707C11.2981 31.9971 11.0639 32.2344 10.7777 32.2344Z" fill="#F6A96C"/>
<path d="M22.0877 33.3594H20.8388C20.5525 33.3594 20.3184 33.1221 20.3184 32.832C20.3184 32.542 20.5525 32.3047 20.8388 32.3047H22.0877C22.374 32.3047 22.6082 32.542 22.6082 32.832C22.6082 33.1221 22.374 33.3594 22.0877 33.3594Z" fill="#FED2A4"/>
<path d="M26.3895 35.0469H25.1405C24.8543 35.0469 24.6201 34.8096 24.6201 34.5195C24.6201 34.2295 24.8543 33.9922 25.1405 33.9922H26.3895C26.6757 33.9922 26.9099 34.2295 26.9099 34.5195C26.9099 34.8096 26.6757 35.0469 26.3895 35.0469Z" fill="#EA9B58"/>
<path d="M31.212 19.9297H28.5059C28.1227 19.9297 27.812 19.6149 27.812 19.2266V16.4844C27.812 16.096 28.1227 15.7812 28.5059 15.7812H31.212C31.5952 15.7812 31.9059 16.096 31.9059 16.4844V19.2266C31.9059 19.6149 31.5952 19.9297 31.212 19.9297Z" fill="#F6A96C"/>
<path d="M29.4773 19.2266V16.4844C29.4773 16.096 29.788 15.7812 30.1712 15.7812H28.5059C28.1227 15.7812 27.812 16.096 27.812 16.4844V19.2266C27.812 19.6149 28.1227 19.9297 28.5059 19.9297H30.1712C29.788 19.9297 29.4773 19.6149 29.4773 19.2266Z" fill="#EA9B58"/>
</svg>
