<svg width="64" height="64" viewBox="0 0 64 64" fill="none" xmlns="http://www.w3.org/2000/svg">
<path d="M64 46.8684L42.4057 63.9995L4 63.9995C1.79086 63.9995 -1.56562e-07 62.2087 -3.49691e-07 59.9995L-3.86266e-06 19.8159L22.1285 -0.000484621L60 -0.000487932C62.2091 -0.000488125 64 1.79037 64 3.99951L64 46.8684Z" fill="#EC1A25"/>
<g clip-path="url(#clip0_1640_84)">
<path d="M43.7221 31.3366C43.7218 31.3363 43.7216 31.336 43.7213 31.3357L38.8226 26.4607C38.4556 26.0955 37.8621 26.0969 37.4968 26.4639C37.1315 26.8309 37.1329 27.4245 37.4999 27.7897L40.7888 31.0627L20.9346 31.0627C20.4168 31.0627 19.9971 31.4825 19.9971 32.0002C19.9971 32.518 20.4168 32.9377 20.9346 32.9377L40.7888 32.9377L37.5 36.2107C37.133 36.576 37.1316 37.1696 37.4968 37.5366C37.8621 37.9036 38.4557 37.9049 38.8227 37.5397L43.7213 32.6647C43.7216 32.6645 43.7218 32.6641 43.7221 32.6638C44.0893 32.2974 44.0881 31.7019 43.7221 31.3366Z" fill="white"/>
</g>
<defs>
<clipPath id="clip0_1640_84">
<rect width="24" height="24" fill="white" transform="translate(19.9971 20.0002)"/>
</clipPath>
</defs>
</svg>
