<svg width="72" height="72" viewBox="0 0 72 72" fill="none" xmlns="http://www.w3.org/2000/svg">
<path d="M0 17.1311L21.5943 0H68C70.2091 0 72 1.79086 72 4V52.1837L49.8715 72H3.99999C1.79086 72 0 70.2091 0 68V17.1311Z" fill="#EC1A25"/>
<g clip-path="url(#clip0_1640_474)">
<path d="M35.3393 24.2742C35.339 24.2745 35.3387 24.2748 35.3384 24.2751L30.4634 29.1737C30.0982 29.5407 30.0996 30.1343 30.4666 30.4996C30.8336 30.8648 31.4272 30.8634 31.7924 30.4964L35.0654 27.2075L35.0654 47.0618C35.0654 47.5795 35.4851 47.9993 36.0029 47.9993C36.5207 47.9993 36.9404 47.5795 36.9404 47.0618L36.9404 27.2075L40.2134 30.4964C40.5787 30.8634 41.1723 30.8648 41.5392 30.4995C41.9063 30.1342 41.9076 29.5406 41.5424 29.1737L36.6674 24.275C36.6671 24.2748 36.6668 24.2745 36.6665 24.2742C36.3001 23.907 35.7046 23.9082 35.3393 24.2742Z" fill="white"/>
</g>
<defs>
<clipPath id="clip0_1640_474">
<rect width="24" height="24" fill="white" transform="translate(24.0029 47.9993) rotate(-90)"/>
</clipPath>
</defs>
</svg>
