<svg width="64" height="64" viewBox="0 0 64 64" fill="none" xmlns="http://www.w3.org/2000/svg">
<path d="M0 17.1306L21.5943 -0.000488281H60C62.2091 -0.000488281 64 1.79037 64 3.99951V44.1832L41.8715 63.9995H4C1.79086 63.9995 0 62.2087 0 59.9995V17.1306Z" fill="#3C3A3B"/>
<g clip-path="url(#clip0_1746_970)">
<path d="M20.2779 32.6624C20.2782 32.6627 20.2784 32.663 20.2787 32.6633L25.1774 37.5383C25.5444 37.9035 26.1379 37.9021 26.5032 37.5351C26.8685 37.1681 26.8671 36.5745 26.5001 36.2093L23.2112 32.9363L43.0654 32.9363C43.5832 32.9363 44.0029 32.5166 44.0029 31.9988C44.0029 31.481 43.5832 31.0613 43.0654 31.0613L23.2112 31.0613L26.5 27.7883C26.867 27.423 26.8684 26.8295 26.5032 26.4625C26.1379 26.0954 25.5443 26.0941 25.1773 26.4593L20.2787 31.3343C20.2784 31.3346 20.2782 31.3349 20.2779 31.3352C19.9107 31.7016 19.9119 32.2971 20.2779 32.6624Z" fill="white"/>
</g>
<defs>
<clipPath id="clip0_1746_970">
<rect width="24" height="24" fill="white" transform="translate(44.0029 43.9988) rotate(180)"/>
</clipPath>
</defs>
</svg>
