<svg width="40" height="40" viewBox="0 0 40 40" fill="none" xmlns="http://www.w3.org/2000/svg">
<path d="M33.6457 29.4859C31.1584 30.7643 31.1584 34.804 31.1584 34.804C31.1584 34.804 23.6966 27.1337 19.9657 37.3607C16.2348 27.1337 8.77296 34.804 8.77296 34.804C8.77296 34.804 8.77296 30.7643 6.28568 29.4859C2.95895 27.7793 8.08896 14.2477 8.08896 14.2477C10.4332 12.0873 9.87358 7.52351 8.77918 5.20327C9.05278 5.47812 16.3032 12.6754 19.9657 2.64014C23.6282 12.6754 30.8786 5.47812 31.1522 5.20327C30.0578 7.52351 29.4982 12.0873 31.8424 14.2477C31.8424 14.2477 36.9724 27.7793 33.6457 29.4859Z" fill="#F3D55B"/>
<path d="M10.4333 29.0578L7.88386 31.6785C7.65845 31.9118 7.35182 32.043 7.03197 32.043C6.71212 32.043 6.40549 31.9118 6.18008 31.6785L2.34967 27.7411C1.88344 27.2557 1.88344 26.4752 2.34967 25.9898L2.76007 25.5679L3.63684 24.6666L4.89913 23.3755L7.56052 26.1112L9.2643 27.8562L10.4333 29.0578Z" fill="#E64C3C"/>
<path d="M18.3804 23.4968C18.0205 23.8456 17.5981 24.1191 17.1367 24.3022C15.377 25.0309 13.1446 24.5131 11.4595 23.2603C9.33911 21.6815 8.08303 18.9394 9.70598 16.0311C9.95224 15.5775 10.2463 15.1531 10.5827 14.7656C11.6359 13.4161 13.4423 12.967 14.979 13.6725C16.0455 14.136 17.0083 14.8191 17.8083 15.6796C18.5405 16.3939 19.1317 17.2469 19.5494 18.1916C20.1774 19.6809 20.3204 21.6368 18.3804 23.4968Z" fill="#E64C3C"/>
<path d="M17.1367 24.3022C15.5946 25.8171 13.0887 28.2588 10.4335 29.0577L9.26447 27.8561L7.56069 26.1111L4.89931 23.3754C4.89931 23.3754 4.0785 17.4693 7.36171 14.0944C9.17742 12.2344 10.1288 13.3082 10.5827 14.7656C10.2462 15.1531 9.95222 15.5775 9.70597 16.0311C8.08302 18.9394 9.33909 21.6815 11.4595 23.2603C13.1446 24.5131 15.377 25.0309 17.1367 24.3022Z" fill="#C03A2B"/>
<path d="M6.19842 28.2012C5.95322 28.4484 5.56065 28.4484 5.31544 28.2012L2.76598 25.5805C2.75977 25.5741 2.75977 25.5741 2.75977 25.5678L3.63653 24.6665L3.64897 24.6793L6.19842 27.3C6.43952 27.5493 6.43952 27.9519 6.19842 28.2012Z" fill="#F9EAB0"/>
<path d="M37.6505 27.7412L33.8139 31.6786C33.5897 31.9118 33.2841 32.043 32.9651 32.043C32.6462 32.043 32.3405 31.9118 32.1164 31.6786L29.5669 29.0579L30.7359 27.8562L32.4335 26.1112L35.0949 23.3755L35.1011 23.3691L37.6505 25.9898C38.1168 26.4752 38.1168 27.2557 37.6505 27.7412Z" fill="#3B97D3"/>
<path d="M28.535 23.2603C26.8498 24.5131 24.6175 25.0309 22.8578 24.3022C22.3964 24.1191 21.974 23.8456 21.6141 23.4968C19.6803 21.6368 19.8233 19.6809 20.4513 18.1916C20.869 17.2469 21.4602 16.3939 22.1924 15.6796C22.9924 14.8191 23.9552 14.1361 25.0217 13.6726C26.5585 12.9682 28.3641 13.4171 29.418 14.7656C29.7504 15.155 30.0421 15.5792 30.2885 16.0311C31.9114 18.9394 30.6554 21.6815 28.535 23.2603Z" fill="#3B97D3"/>
<path d="M35.0948 23.3754L32.4334 26.1111L30.7359 27.8561L29.5668 29.0577C26.9055 28.2588 24.3995 25.8171 22.8574 24.3022C24.6172 25.0309 26.8495 24.5131 28.5346 23.2603C30.655 21.6815 31.9111 18.9394 30.2882 16.0311C30.0418 15.5792 29.75 15.155 29.4176 14.7656C29.8653 13.3082 30.8229 12.2344 32.6324 14.0944C35.9156 17.4693 35.0948 23.3754 35.0948 23.3754Z" fill="#2980BA"/>
<path d="M37.2396 25.5678L37.2272 25.5805L34.6777 28.2012C34.5611 28.322 34.4017 28.3888 34.2362 28.3866C34.0725 28.3887 33.9152 28.3217 33.8009 28.2012C33.5598 27.9519 33.5598 27.5493 33.8009 27.3L36.3504 24.6793L36.3628 24.6665L37.2396 25.5678Z" fill="#F9EAB0"/>
<path d="M11.8656 17.9423C11.6433 17.9425 11.4378 17.8208 11.3266 17.623C11.2154 17.4252 11.2153 17.1814 11.3265 16.9835C11.9719 15.8279 12.6509 15.2654 13.4027 15.2654C13.713 15.2733 14.0192 15.3396 14.3062 15.461C14.519 15.5389 14.6739 15.7293 14.711 15.9583C14.748 16.1874 14.6613 16.419 14.4844 16.5635C14.3076 16.708 14.0685 16.7425 13.8598 16.6537C13.7151 16.5892 13.5603 16.5519 13.4027 16.5438C13.2112 16.5438 12.8481 16.8269 12.4078 17.6201C12.2967 17.8201 12.0896 17.9431 11.8656 17.9423Z" fill="white"/>
<path d="M25.5206 8.5981C25.1496 8.59879 24.7796 8.55872 24.4169 8.47857C22.5931 8.07333 21.0995 6.65753 19.9659 4.26506C18.8323 6.65753 17.3387 8.07205 15.5149 8.47857C11.9171 9.2782 8.47844 5.79719 8.33356 5.6489C8.09772 5.39827 8.10082 4.9996 8.34051 4.75287C8.5802 4.50613 8.96803 4.50239 9.21219 4.74445C9.24328 4.77641 12.3163 7.88477 15.2556 7.22833C16.97 6.84482 18.3585 5.22512 19.3833 2.4159C19.474 2.16582 19.7063 2 19.9659 2C20.2256 2 20.4579 2.16582 20.5486 2.4159C21.5733 5.22512 22.9618 6.84418 24.6762 7.22833C27.6143 7.88158 30.6886 4.77577 30.7197 4.74445C30.9638 4.50239 31.3516 4.50613 31.5913 4.75287C31.831 4.9996 31.8341 5.39827 31.5983 5.6489C31.4696 5.78249 28.6888 8.5981 25.5206 8.5981Z" fill="#F0C419"/>
<path d="M19.9659 38.0001C19.7065 38.0002 19.4743 37.8349 19.3833 37.5853C18.3585 34.7728 16.97 33.157 15.2556 32.7728C12.3157 32.1189 9.24328 35.2247 9.21219 35.2567C8.96803 35.4988 8.5802 35.495 8.34051 35.2483C8.10082 35.0015 8.09772 34.6029 8.33356 34.3522C8.47782 34.2033 11.9171 30.7217 15.5149 31.5226C17.3387 31.9291 18.8323 33.3436 19.9659 35.7354C21.0995 33.3436 22.5931 31.9291 24.4169 31.5226C28.0154 30.723 31.454 34.2072 31.5983 34.3522C31.8341 34.6029 31.831 35.0015 31.5913 35.2483C31.3516 35.495 30.9638 35.4988 30.7197 35.2567C30.6886 35.2254 27.6149 32.1164 24.6762 32.7728C22.9618 33.1563 21.5733 34.7754 20.5486 37.5853C20.4575 37.8349 20.2253 38.0002 19.9659 38.0001Z" fill="#F0C419"/>
</svg>
