<svg width="20" height="20" viewBox="0 0 20 20" fill="none" xmlns="http://www.w3.org/2000/svg">
<g clip-path="url(#clip0_1640_435)">
<path d="M18.5 1.80239C18.0315 1.41066 17.4826 1.12688 16.8921 0.971189C16.3016 0.815501 15.684 0.791726 15.0833 0.901552L11.8983 1.47989C11.163 1.61492 10.4944 1.99324 10 2.55405C9.5043 1.99227 8.8338 1.61387 8.09667 1.47989L4.91667 0.901552C4.31597 0.79163 3.69844 0.815094 3.10781 0.970282C2.51718 1.12547 1.96789 1.40859 1.4988 1.7996C1.02972 2.1906 0.652322 2.67994 0.393318 3.23297C0.134315 3.78601 4.0677e-05 4.38921 0 4.99989L0 13.9941C4.78799e-05 14.9697 0.342481 15.9144 0.967611 16.6635C1.59274 17.4126 2.46092 17.9186 3.42083 18.0932L8.65917 19.0457C9.5458 19.2068 10.4542 19.2068 11.3408 19.0457L16.5833 18.0932C17.5425 17.9177 18.4097 17.4114 19.034 16.6624C19.6583 15.9134 20.0001 14.9691 20 13.9941V4.99989C20.0004 4.38942 19.8662 3.78638 19.6069 3.23371C19.3476 2.68104 18.9697 2.19233 18.5 1.80239ZM9.16667 17.4399C9.09667 17.4299 9.02667 17.4182 8.95667 17.4057L3.71917 16.4541C3.14314 16.3492 2.62216 16.0456 2.24707 15.596C1.87198 15.1465 1.66658 14.5795 1.66667 13.9941V4.99989C1.66667 4.33684 1.93006 3.70096 2.3989 3.23212C2.86774 2.76328 3.50363 2.49989 4.16667 2.49989C4.31758 2.50025 4.46816 2.51391 4.61667 2.54072L7.8 3.12405C8.18301 3.19414 8.52939 3.39611 8.77904 3.69492C9.02868 3.99373 9.16582 4.37052 9.16667 4.75989V17.4399ZM18.3333 13.9941C18.3334 14.5795 18.128 15.1465 17.7529 15.596C17.3778 16.0456 16.8569 16.3492 16.2808 16.4541L11.0433 17.4057C10.9733 17.4182 10.9033 17.4299 10.8333 17.4399V4.75989C10.8333 4.36956 10.9702 3.9916 11.2203 3.69189C11.4703 3.39219 11.8176 3.18975 12.2017 3.11989L15.3858 2.53655C15.7464 2.47094 16.117 2.48543 16.4714 2.57898C16.8258 2.67253 17.1553 2.84285 17.4365 3.07789C17.7178 3.31293 17.9439 3.60693 18.0988 3.93907C18.2538 4.27121 18.3339 4.63337 18.3333 4.99989V13.9941Z" fill="#3C3A3B"/>
</g>
<defs>
<clipPath id="clip0_1640_435">
<rect width="20" height="20" fill="white"/>
</clipPath>
</defs>
</svg>
