<svg width="40" height="40" viewBox="0 0 40 40" fill="none" xmlns="http://www.w3.org/2000/svg">
<path d="M10.3037 35.4244C9.33424 36.3939 7.55794 37.5133 6.09621 37.6624L3.17276 37.9906C2.85952 38.0353 2.53137 37.9161 2.30764 37.6923C2.0839 37.4685 1.96458 37.1404 2.0093 36.8271L2.80123 33.4406C2.98017 31.7999 3.77077 30.3532 4.94906 29.3538C5.54567 28.8467 6.29147 28.5782 7.03727 28.5483L10.3634 29.6371L10.4827 29.667L11.4522 32.9633C11.4223 33.7091 11.1539 34.4549 10.6467 35.0515C10.5424 35.1857 10.423 35.3051 10.3037 35.4244Z" fill="#FFFB7C"/>
<path d="M10.6467 35.0515C10.5424 35.1857 10.4231 35.3051 10.3037 35.4244C9.33422 36.3939 7.55792 37.5133 6.09619 37.6624L3.17274 37.9906C2.8595 38.0353 2.53135 37.9161 2.30762 37.6923L10.3634 29.6372L10.4826 29.6671L11.4522 32.9633C11.4224 33.7091 11.1539 34.4549 10.6467 35.0515Z" fill="#FFD946"/>
<path d="M20.67 14.8561C20.2577 15.2684 19.5906 15.2684 19.1784 14.8561L14.7038 10.3815C14.4023 10.08 14.3112 9.62623 14.4751 9.2322C14.6382 8.83746 15.0228 8.62329 15.4496 8.62329H24.3989C24.8271 8.62329 25.2094 8.83676 25.3733 9.2322C25.5372 9.62623 25.4462 10.08 25.1447 10.3815L20.67 14.8561Z" fill="#3E5959"/>
<path d="M31.3775 24.5512C31.3775 24.978 31.1633 25.3625 30.7686 25.5257C30.3745 25.6896 29.9208 25.5985 29.6193 25.297L25.1446 20.8223C24.7324 20.4101 24.7324 19.743 25.1446 19.3308L29.6193 14.8561C29.9208 14.5546 30.3745 14.4635 30.7686 14.6274C31.1618 14.792 31.3782 15.1759 31.3775 15.6019V24.5512Z" fill="#293939"/>
<path d="M15.4499 32.009L11.4526 32.9636L7.0376 28.5486L7.99216 24.5513L11.9299 26.1026L12.6607 27.3405L15.4499 32.009Z" fill="#C5D3DD"/>
<path d="M10.9374 24.5888L16.1954 19.3307C16.4969 19.0292 16.588 18.5755 16.4241 18.1815C16.2609 17.7853 15.8778 17.5444 15.4496 17.5444H9.48338C9.20374 17.5444 8.93571 17.641 8.73757 17.8392L5.75449 20.8223C5.34225 21.2345 5.34225 21.9016 5.75449 22.3138L7.99184 24.5511L10.9374 24.5888Z" fill="#3E5959"/>
<path d="M22.4559 30.6805V24.7143C22.4559 24.289 22.2136 23.7398 21.8189 23.5767C21.4249 23.4128 20.9711 23.5038 20.6696 23.8053L15.9916 28.4833L15.4492 32.0089L17.6866 34.2462C18.0988 34.6585 18.7659 34.6585 19.1781 34.2462L22.1471 31.4263C22.3453 31.2282 22.4559 30.9602 22.4559 30.6805Z" fill="#293939"/>
<path d="M12.6603 27.3403L15.4495 32.0089L11.4522 32.9634L9.24463 30.756L12.6603 27.3403Z" fill="#9FACBA"/>
<path d="M30.365 17.0933L15.4495 32.0088L7.9917 24.551L22.9072 9.6355L26.5913 10.3365L28.6944 12.4396L30.365 17.0933Z" fill="#DEECF1"/>
<path d="M28.6946 12.4398L30.3651 17.0935L15.4496 32.009L11.7207 28.2801L28.1278 11.873L28.6946 12.4398Z" fill="#C5D3DD"/>
<path d="M33.3481 14.1104L30.365 17.0934L22.9072 9.63566L25.8903 6.65259L29.3358 7.11496L32.7067 10.4859L33.3481 14.1104Z" fill="#C5D3DD"/>
<path d="M33.3482 14.1101L30.3651 17.0931L26.6362 13.3643L31.1108 8.88965L32.7069 10.4856L33.3482 14.1101Z" fill="#9FACBA"/>
<path d="M37.0773 2.92362C34.8847 0.731063 29.8134 2.72969 26.6364 5.90669L25.8906 6.6525L33.3484 14.1103L34.1091 13.3495C37.3011 10.1278 39.255 5.10126 37.0773 2.92362Z" fill="#FF9100"/>
<path d="M34.1087 13.3495L33.348 14.1102L29.6191 10.3813L37.0769 2.92358C39.2546 5.10123 37.3007 10.1277 34.1087 13.3495Z" fill="#FF641A"/>
</svg>
