<svg width="40" height="40" viewBox="0 0 40 40" fill="none" xmlns="http://www.w3.org/2000/svg">
<path d="M6.85833 35.4098L14.9577 28.6127L11.3874 25.0425L4.59033 33.1418L6.85833 35.4098Z" fill="#59474E"/>
<path d="M14.3457 25.6545L16.1333 27.4421L20.0002 24.3945L20.9746 23.631V23.6248L24.8477 20.5773L37.1064 10.9255L38.0002 2" fill="#90BAE1"/>
<path d="M12.5581 23.8669L14.3457 25.6545L38.0002 2L29.0747 2.89381L20.0002 14.42L17.5423 17.5421L16.3754 19.0255H16.3692L15.1526 20.5773L12.5581 23.8669Z" fill="#B0D3F0"/>
<path d="M14.3457 25.6545L12.5581 23.8669L15.1526 20.5773L16.3692 19.0255H16.3754L17.5423 17.5421L20.0002 14.42L29.0747 2.89381L38.0002 2" fill="#B0D3F0"/>
<path d="M20.5928 20.028C20.7574 20.028 20.9152 19.9626 21.0316 19.8462L32.1904 8.68741C32.4256 8.44385 32.4223 8.05671 32.1828 7.8173C31.9434 7.57788 31.5562 7.57451 31.3127 7.8097L20.1539 18.9686C19.9765 19.1461 19.9234 19.413 20.0194 19.6449C20.1155 19.8768 20.3418 20.028 20.5928 20.028Z" fill="#3F5C6C"/>
<path d="M33.537 7.08419C33.7016 7.08419 33.8594 7.01873 33.9758 6.90236L35.3146 5.56354C35.476 5.40773 35.5407 5.1769 35.4838 4.95991C35.427 4.74293 35.2576 4.5734 35.0405 4.51659C34.8235 4.45978 34.5928 4.52447 34.4369 4.68583L33.0968 6.02465C32.9193 6.20219 32.8662 6.4691 32.9623 6.70099C33.0583 6.93288 33.2846 7.08412 33.5356 7.08419H33.537Z" fill="#3F5C6C"/>
<path d="M8.61621 22.9794C8.61635 23.3151 8.75037 23.6368 8.98866 23.8732L16.1266 31.0111C16.6202 31.5047 17.4205 31.5047 17.9141 31.0111C18.4077 30.5175 18.4077 29.7172 17.9141 29.2236L10.7762 22.0857C10.4141 21.7248 9.87059 21.6171 9.3983 21.8126C8.92594 22.008 8.61748 22.4682 8.61621 22.9794Z" fill="#F0C419"/>
<path d="M4.52499 37.9999C5.91951 37.9999 7.04998 36.8695 7.04998 35.4749C7.04998 34.0804 5.91951 32.95 4.52499 32.95C3.13048 32.95 2 34.0804 2 35.4749C2 36.8695 3.13048 37.9999 4.52499 37.9999Z" fill="#F0C419"/>
<path d="M4.52506 36.7164C5.21065 36.7164 5.76643 36.1606 5.76643 35.475C5.76643 34.7894 5.21065 34.2336 4.52506 34.2336C3.83947 34.2336 3.28369 34.7894 3.28369 35.475C3.28369 36.1606 3.83947 36.7164 4.52506 36.7164Z" fill="#E57E25"/>
<path d="M33.1418 35.4098L25.0425 28.6127L28.6127 25.0425L35.4098 33.1418L33.1418 35.4098Z" fill="#59474E"/>
<path d="M25.6545 25.6545L23.8669 27.4421L20 24.3945L19.0255 23.631V23.6248L15.1524 20.5773L2.89381 10.9255L2 2" fill="#90BAE1"/>
<path d="M27.4421 23.8669L25.6545 25.6545L2 2L10.9255 2.89381L20 14.42L22.4579 17.5421L23.6248 19.0255H23.631L24.8476 20.5773L27.4421 23.8669Z" fill="#B0D3F0"/>
<path d="M25.6545 25.6545L27.4421 23.8669L24.8476 20.5773L23.631 19.0255H23.6248L22.4579 17.5421L20 14.42L10.9255 2.89381L2 2" fill="#B0D3F0"/>
<path d="M19.4071 20.0278C19.2425 20.0277 19.0847 19.9623 18.9683 19.846L7.80949 8.68717C7.57429 8.44361 7.57759 8.05647 7.81708 7.81705C8.05649 7.57764 8.44363 7.57426 8.6872 7.80946L19.8459 18.9682C20.0234 19.1457 20.0765 19.4126 19.9804 19.6445C19.8843 19.8766 19.6581 20.0277 19.4071 20.0278Z" fill="#3F5C6C"/>
<path d="M6.4631 7.08411C6.29871 7.08439 6.14086 7.01942 6.02428 6.90348L4.68546 5.56339C4.45027 5.31983 4.45357 4.93269 4.69306 4.69327C4.93254 4.45386 5.31961 4.45048 5.56317 4.68568L6.90326 6.0245C7.08073 6.20204 7.13381 6.46895 7.03777 6.70084C6.94172 6.93273 6.71545 7.08397 6.46444 7.08404H6.4631V7.08411Z" fill="#3F5C6C"/>
<path d="M31.3835 22.9794C31.3834 23.3151 31.2493 23.6368 31.011 23.8732L23.8731 31.0111C23.3795 31.5047 22.5792 31.5047 22.0856 31.0111C21.5919 30.5175 21.5919 29.7172 22.0856 29.2236L29.2235 22.0857C29.5856 21.7248 30.1291 21.6171 30.6014 21.8126C31.0738 22.008 31.3822 22.4682 31.3835 22.9794Z" fill="#F0C419"/>
<path d="M35.4747 37.9999C36.8692 37.9999 37.9997 36.8695 37.9997 35.4749C37.9997 34.0804 36.8692 32.95 35.4747 32.95C34.0802 32.95 32.9497 34.0804 32.9497 35.4749C32.9497 36.8695 34.0802 37.9999 35.4747 37.9999Z" fill="#F0C419"/>
<path d="M35.4748 36.7164C36.1604 36.7164 36.7161 36.1606 36.7161 35.475C36.7161 34.7894 36.1604 34.2336 35.4748 34.2336C34.7892 34.2336 34.2334 34.7894 34.2334 35.475C34.2334 36.1606 34.7892 36.7164 35.4748 36.7164Z" fill="#E57E25"/>
</svg>
