<svg width="93" height="24" viewBox="0 0 93 24" fill="none" xmlns="http://www.w3.org/2000/svg">
<path d="M0 12.2612L9.38656 0H89C91.2091 0 93 1.79086 93 4V13.0408L85.0475 24H4C1.79086 24 0 22.2091 0 20V12.2612Z" fill="#EC1A25"/>
<path d="M24.404 17.18C23.844 17.18 23.318 17.082 22.826 16.886C22.338 16.686 21.908 16.394 21.536 16.01C21.168 15.626 20.88 15.156 20.672 14.6C20.464 14.04 20.36 13.4 20.36 12.68C20.36 11.736 20.536 10.93 20.888 10.262C21.24 9.59 21.722 9.076 22.334 8.72C22.946 8.36 23.636 8.18 24.404 8.18C25.468 8.18 26.31 8.428 26.93 8.924C27.554 9.416 27.976 10.108 28.196 11L26.72 11.234C26.556 10.722 26.288 10.314 25.916 10.01C25.544 9.702 25.07 9.548 24.494 9.548C23.914 9.54 23.432 9.666 23.048 9.926C22.664 10.186 22.374 10.552 22.178 11.024C21.986 11.496 21.89 12.048 21.89 12.68C21.89 13.312 21.986 13.862 22.178 14.33C22.37 14.794 22.658 15.156 23.042 15.416C23.43 15.676 23.914 15.81 24.494 15.818C24.93 15.822 25.312 15.744 25.64 15.584C25.968 15.42 26.236 15.174 26.444 14.846C26.652 14.514 26.792 14.1 26.864 13.604H25.34V12.47H28.4C28.408 12.534 28.414 12.628 28.418 12.752C28.422 12.876 28.424 12.95 28.424 12.974C28.424 13.79 28.262 14.516 27.938 15.152C27.618 15.784 27.158 16.28 26.558 16.64C25.958 17 25.24 17.18 24.404 17.18ZM28.7947 17L31.5187 8.36H33.6367L36.3607 17H34.8727L32.4007 9.248H32.7247L30.2827 17H28.7947ZM30.3127 15.128V13.778H34.8487V15.128H30.3127ZM37.5655 17V8.36H39.0115V15.644H42.8275V17H37.5655ZM43.9639 17V8.36H45.4099V15.644H49.2259V17H43.9639ZM50.2423 17V8.36H55.8223V9.716H51.6883V11.846H55.1023V13.202H51.6883V15.644H55.8223V17H50.2423ZM57.2619 17V8.36H60.8319C60.9159 8.36 61.0239 8.364 61.1559 8.372C61.2879 8.376 61.4099 8.388 61.5219 8.408C62.0219 8.484 62.4339 8.65 62.7579 8.906C63.0859 9.162 63.3279 9.486 63.4839 9.878C63.6439 10.266 63.7239 10.698 63.7239 11.174C63.7239 11.878 63.5459 12.484 63.1899 12.992C62.8339 13.496 62.2879 13.808 61.5519 13.928L60.9339 13.982H58.7079V17H57.2619ZM62.2239 17L60.5199 13.484L61.9899 13.16L63.8619 17H62.2239ZM58.7079 12.632H60.7719C60.8519 12.632 60.9419 12.628 61.0419 12.62C61.1419 12.612 61.2339 12.596 61.3179 12.572C61.5579 12.512 61.7459 12.406 61.8819 12.254C62.0219 12.102 62.1199 11.93 62.1759 11.738C62.2359 11.546 62.2659 11.358 62.2659 11.174C62.2659 10.99 62.2359 10.802 62.1759 10.61C62.1199 10.414 62.0219 10.24 61.8819 10.088C61.7459 9.936 61.5579 9.83 61.3179 9.77C61.2339 9.746 61.1419 9.732 61.0419 9.728C60.9419 9.72 60.8519 9.716 60.7719 9.716H58.7079V12.632ZM67.1197 17V13.46L64.1797 8.36H65.8657L67.8517 11.804L69.8317 8.36H71.5177L68.5837 13.46V17H67.1197Z" fill="white"/>
</svg>
