<svg width="200" height="45" viewBox="0 0 200 45" fill="none" xmlns="http://www.w3.org/2000/svg">
<path d="M48.8786 31.4259C48.2929 31.4259 48 31.1332 48 30.5479V14.0346C48 13.4493 48.2929 13.1566 48.8786 13.1566H55.4058C57.0329 13.1566 58.2695 13.5793 59.1156 14.4247C59.9617 15.2702 60.3848 16.5058 60.3848 18.1315V18.9677C60.3848 20.5842 59.9617 21.8198 59.1156 22.6745C58.2695 23.5199 57.0329 23.9426 55.4058 23.9426H49.7573V30.5479C49.7573 31.1332 49.4644 31.4259 48.8786 31.4259ZM49.7573 22.1867H55.4058C56.5494 22.1867 57.3723 21.9359 57.8743 21.4342C58.3764 20.9233 58.6275 20.1011 58.6275 18.9677V18.1315C58.6275 16.9981 58.3764 16.1806 57.8743 15.6789C57.3723 15.168 56.5494 14.9125 55.4058 14.9125H49.7573V22.1867Z" fill="#3C3A3B"/>
<path d="M68.0869 31.4259C66.7387 31.4259 65.7392 31.1054 65.0883 30.4643C64.4468 29.814 64.126 28.82 64.126 27.4822V12.8779C64.126 12.2926 64.4189 12 65.0047 12C65.5904 12 65.8833 12.2926 65.8833 12.8779V27.4822C65.8833 28.3276 66.0367 28.9036 66.3436 29.2101C66.6504 29.5167 67.2269 29.67 68.073 29.67C68.6773 29.67 68.9795 29.9627 68.9795 30.5479C68.9981 31.1332 68.7006 31.4259 68.0869 31.4259Z" fill="#3C3A3B"/>
<path d="M76.2475 31.4259C74.7692 31.4259 73.6767 31.0728 72.97 30.3668C72.2634 29.6607 71.9101 28.5691 71.9101 27.092C71.9101 25.6055 72.2634 24.5093 72.97 23.8032C73.6767 23.0972 74.7692 22.7441 76.2475 22.7441H82.4539C82.4167 21.6014 82.1424 20.8071 81.631 20.3612C81.1289 19.9153 80.2642 19.6923 79.0369 19.6923H77.4191C76.3219 19.6923 75.513 19.7991 74.9923 20.0128C74.4809 20.2172 74.1509 20.5749 74.0021 21.0858C73.9091 21.3645 73.7929 21.5689 73.6534 21.699C73.5233 21.8198 73.3234 21.8802 73.0537 21.8802C72.7655 21.8802 72.5377 21.8012 72.3703 21.6433C72.2123 21.476 72.1565 21.2531 72.203 20.9744C72.3796 19.9153 72.8957 19.1442 73.7511 18.6611C74.6065 18.178 75.8291 17.9365 77.4191 17.9365H79.0369C80.8221 17.9365 82.1284 18.3545 82.956 19.1906C83.7928 20.0175 84.2112 21.3227 84.2112 23.1065V30.5479C84.2112 31.1332 83.9183 31.4259 83.3325 31.4259C82.7468 31.4259 82.4539 31.1332 82.4539 30.5479V29.4052C81.5334 30.7523 79.9853 31.4259 77.8096 31.4259H76.2475ZM76.2475 29.67H77.8096C78.6464 29.67 79.3902 29.5818 80.0411 29.4052C80.7012 29.2287 81.2405 28.9361 81.6589 28.5273C82.0866 28.1185 82.3516 27.5658 82.4539 26.869V24.5H76.2475C75.2527 24.5 74.5739 24.6812 74.2113 25.0435C73.8487 25.4058 73.6674 26.0886 73.6674 27.092C73.6674 28.086 73.8487 28.7642 74.2113 29.1265C74.5739 29.4889 75.2527 29.67 76.2475 29.67Z" fill="#3C3A3B"/>
<path d="M92.8089 37C91.5444 37 90.6054 36.6934 89.9917 36.0803C89.3873 35.4671 89.0852 34.5242 89.0852 33.2514C89.0852 32.6661 89.378 32.3735 89.9638 32.3735C90.5496 32.3735 90.8424 32.6661 90.8424 33.2514C90.8424 34.0318 90.9773 34.5567 91.2469 34.8261C91.5165 35.1048 92.0372 35.2441 92.8089 35.2441H97.8298C98.6015 35.2441 99.1222 35.1048 99.3918 34.8261C99.6615 34.5567 99.7963 34.0318 99.7963 33.2514V29.5167C99.2663 30.2599 98.6108 30.7663 97.8298 31.0357C97.0488 31.3051 96.1562 31.4398 95.152 31.4398H94.1757C92.4184 31.4398 91.1307 31.031 90.3125 30.2135C89.4943 29.396 89.0852 28.1185 89.0852 26.3813V18.8004C89.0852 18.2152 89.378 17.9225 89.9638 17.9225C90.5496 17.9225 90.8424 18.2152 90.8424 18.8004V26.3813C90.8424 27.6355 91.0795 28.4994 91.5537 28.9732C92.0372 29.447 92.9112 29.6839 94.1757 29.6839H95.152C96.7513 29.6839 97.9228 29.4099 98.6666 28.8618C99.4197 28.3136 99.7963 27.4868 99.7963 26.3813V18.8004C99.7963 18.2152 100.089 17.9225 100.675 17.9225C101.261 17.9225 101.554 18.2152 101.554 18.8004V33.2514C101.554 34.5242 101.247 35.4671 100.633 36.0803C100.029 36.6934 99.0943 37 97.8298 37H92.8089Z" fill="#3C3A3B"/>
<path d="M119.233 31.4119C117.596 31.4119 116.359 31.0589 115.523 30.3528C114.695 29.6468 114.226 28.5412 114.114 27.0362C114.095 26.7482 114.165 26.5253 114.323 26.3673C114.481 26.2094 114.7 26.1304 114.979 26.1304C115.258 26.1304 115.467 26.2048 115.606 26.3534C115.755 26.502 115.848 26.7157 115.885 26.9944C115.95 27.9885 116.234 28.6806 116.736 29.0708C117.238 29.461 118.07 29.6561 119.233 29.6561H123.249C124.532 29.6561 125.416 29.4145 125.899 28.9314C126.392 28.4391 126.638 27.5611 126.638 26.2977C126.638 25.0156 126.387 24.133 125.885 23.6499C125.392 23.1576 124.514 22.9114 123.249 22.9114H119.553C117.87 22.9114 116.634 22.5165 115.843 21.7269C115.053 20.9279 114.658 19.6923 114.658 18.0201C114.658 16.3478 115.048 15.1215 115.829 14.3411C116.62 13.5515 117.852 13.1566 119.525 13.1566H123.235C124.769 13.1566 125.927 13.4911 126.708 14.16C127.498 14.8196 127.949 15.8554 128.061 17.2676C128.089 17.5463 128.024 17.7692 127.866 17.9365C127.708 18.0944 127.484 18.1734 127.196 18.1734C126.926 18.1734 126.717 18.099 126.569 17.9504C126.42 17.7925 126.331 17.5788 126.304 17.3094C126.229 16.4082 125.96 15.7858 125.495 15.442C125.03 15.089 124.277 14.9125 123.235 14.9125H119.525C118.335 14.9125 117.517 15.1401 117.071 15.5953C116.634 16.0412 116.415 16.8495 116.415 18.0201C116.415 19.1906 116.638 20.0082 117.085 20.4727C117.54 20.9279 118.363 21.1555 119.553 21.1555H123.249C125.006 21.1555 126.304 21.5736 127.14 22.4097C127.977 23.2365 128.396 24.5325 128.396 26.2977C128.396 28.0535 127.977 29.3449 127.14 30.1717C126.313 30.9985 125.016 31.4119 123.249 31.4119H119.233Z" fill="#3C3A3B"/>
<path d="M135.81 31.4259C135.308 31.4259 134.983 31.189 134.834 30.7152L130.915 19.107C130.729 18.5589 130.915 18.1919 131.473 18.0061C132.021 17.8203 132.389 18.0061 132.575 18.5635L136.173 29.1405H135.713L139.144 18.7029C139.292 18.2384 139.627 18.0061 140.148 18.0061C140.631 18.0061 140.947 18.2477 141.096 18.7308L144.29 29.0987H143.844L147.609 18.5496C147.814 17.9829 148.19 17.8017 148.739 18.0061C149.288 18.2012 149.464 18.5775 149.269 19.1349L144.987 30.7152C144.811 31.189 144.471 31.4259 143.969 31.4259C143.43 31.4259 143.09 31.1843 142.951 30.7012L139.883 20.7514H140.162L136.8 30.7152C136.717 30.966 136.587 31.1472 136.41 31.2586C136.233 31.3701 136.033 31.4259 135.81 31.4259Z" fill="#3C3A3B"/>
<path d="M153.363 15.4838C152.638 15.4838 152.275 15.1169 152.275 14.3829V13.6862C152.275 12.9708 152.638 12.6132 153.363 12.6132H154.046C154.744 12.6132 155.092 12.9708 155.092 13.6862V14.3829C155.092 15.1169 154.744 15.4838 154.046 15.4838H153.363ZM153.698 31.4259C153.112 31.4259 152.819 31.1332 152.819 30.5479V18.8144C152.819 18.2291 153.112 17.9365 153.698 17.9365C154.283 17.9365 154.576 18.2291 154.576 18.8144V30.5479C154.576 31.1332 154.283 31.4259 153.698 31.4259Z" fill="#3C3A3B"/>
<path d="M165.562 31.4259C163.805 31.4259 162.517 31.0171 161.699 30.1996C160.88 29.382 160.471 28.1046 160.471 26.3673V19.6923H158.909C158.323 19.6923 158.031 19.3997 158.031 18.8144C158.031 18.2291 158.323 17.9365 158.909 17.9365H160.471V15.2609C160.471 14.6756 160.764 14.3829 161.35 14.3829C161.936 14.3829 162.229 14.6756 162.229 15.2609V17.9365H165.632C166.217 17.9365 166.51 18.2291 166.51 18.8144C166.51 19.3997 166.217 19.6923 165.632 19.6923H162.229V26.3673C162.229 27.6215 162.47 28.4855 162.954 28.9593C163.437 29.4331 164.307 29.67 165.562 29.67C165.869 29.67 166.092 29.7443 166.231 29.893C166.38 30.0323 166.454 30.2507 166.454 30.5479C166.454 31.1332 166.157 31.4259 165.562 31.4259Z" fill="#3C3A3B"/>
<path d="M174.135 31.4259C172.36 31.4259 171.053 31.0078 170.216 30.1717C169.38 29.3356 168.961 28.0303 168.961 26.2559V23.0786C168.961 21.2949 169.375 19.9896 170.202 19.1628C171.039 18.3266 172.35 17.9179 174.135 17.9365H176.423C177.799 17.9365 178.859 18.1687 179.603 18.6332C180.346 19.0884 180.802 19.8084 180.969 20.7932C181.025 21.0812 180.969 21.3088 180.802 21.476C180.644 21.634 180.412 21.7129 180.105 21.7129C179.835 21.7129 179.635 21.6433 179.505 21.5039C179.375 21.3553 179.268 21.1555 179.184 20.9047C179.073 20.4588 178.803 20.1475 178.375 19.971C177.957 19.7852 177.306 19.6923 176.423 19.6923H174.135C172.852 19.6737 171.96 19.9106 171.458 20.403C170.965 20.8861 170.718 21.778 170.718 23.0786V26.2559C170.718 27.5379 170.965 28.4298 171.458 28.9314C171.96 29.4238 172.852 29.67 174.135 29.67H176.423C177.306 29.67 177.957 29.5818 178.375 29.4052C178.803 29.2194 179.073 28.9036 179.184 28.4576C179.268 28.1882 179.375 27.9885 179.505 27.8584C179.644 27.7191 179.849 27.6494 180.119 27.6494C180.416 27.6494 180.644 27.7284 180.802 27.8863C180.969 28.0442 181.025 28.2718 180.969 28.5691C180.802 29.5353 180.346 30.2553 179.603 30.7291C178.859 31.1936 177.799 31.4259 176.423 31.4259H174.135Z" fill="#3C3A3B"/>
<path d="M186.522 31.4259C185.936 31.4259 185.643 31.1332 185.643 30.5479V12.8779C185.643 12.2926 185.936 12 186.522 12C187.108 12 187.4 12.2926 187.4 12.8779V19.8456C188.321 18.5728 189.869 17.9365 192.045 17.9365H192.826C194.611 17.9365 195.917 18.3545 196.745 19.1906C197.582 20.0175 198 21.3227 198 23.1065V30.5479C198 31.1332 197.707 31.4259 197.121 31.4259C196.536 31.4259 196.243 31.1332 196.243 30.5479V23.1065C196.243 21.8151 195.992 20.9233 195.49 20.4309C194.997 19.9385 194.109 19.6923 192.826 19.6923H192.045C190.715 19.6923 189.637 19.8874 188.809 20.2776C187.982 20.6678 187.512 21.2763 187.4 22.1031V30.5479C187.4 31.1332 187.108 31.4259 186.522 31.4259Z" fill="#3C3A3B"/>
<path fill-rule="evenodd" clip-rule="evenodd" d="M28 43C32.4183 43 36 39.4183 36 35L36 13C36 8.58172 32.4183 5 28 5L21 5L21 43L28 43ZM29 33C27.3431 33 26 34.3431 26 36C26 37.6569 27.3431 39 29 39C30.6569 39 32 37.6569 32 36C32 34.3431 30.6569 33 29 33Z" fill="#3C3A3B"/>
<path fill-rule="evenodd" clip-rule="evenodd" d="M10 2C5.58172 2 2 5.58172 2 10V32C2 36.4183 5.58172 40 10 40H17V2H10ZM9 12C10.6569 12 12 10.6569 12 9C12 7.34315 10.6569 6 9 6C7.34315 6 6 7.34315 6 9C6 10.6569 7.34315 12 9 12Z" fill="#EC1A25"/>
</svg>
