<svg width="40" height="40" viewBox="0 0 40 40" fill="none" xmlns="http://www.w3.org/2000/svg">
<path d="M31 21.3386V36.6614C31 37.4005 30.3767 38 29.6082 38H10.3918C9.62331 38 9 37.4005 9 36.6614V21.3386C9 20.5995 9.62331 20 10.3918 20H29.6082C30.3767 20 31 20.5995 31 21.3386Z" fill="#EE8E3E"/>
<path d="M14.555 34.7306C13.7865 34.7306 13.1632 34.1311 13.1632 33.392V20H10.3918C9.62331 20 9 20.5995 9 21.3386V36.6614C9 37.4005 9.62331 38 10.3918 38H29.6082C30.3767 38 31 37.4005 31 36.6614V34.7306H14.555Z" fill="#EA8032"/>
<path d="M29 22.3597V35.6403C29 35.839 28.8413 36 28.6456 36H12.3544C12.1587 36 12 35.839 12 35.6403V22.3597C12 22.161 12.1587 22 12.3544 22H28.6456C28.8413 21.9999 29 22.1609 29 22.3597Z" fill="#F8D46E"/>
<path d="M21.4667 34.5762C17.2267 34.5762 13.7895 31.0877 13.7895 26.7842V22H12.3544C12.1587 22 12 22.161 12 22.3597V35.6404C12 35.8391 12.1587 36 12.3543 36H28.6456C28.8413 36 29 35.839 29 35.6403V34.5762H21.4667Z" fill="#F9BD38"/>
<path d="M27.3007 24.7807C27.6779 24.7807 27.9836 24.4888 27.9836 24.1287C27.9836 23.7687 27.6779 23.4768 27.3007 23.4768C26.9235 23.4768 26.6177 23.7687 26.6177 24.1287C26.6177 24.4888 26.9235 24.7807 27.3007 24.7807Z" fill="#E0B13B"/>
<path d="M13.5653 24.7807C13.9425 24.7807 14.2483 24.4888 14.2483 24.1287C14.2483 23.7687 13.9425 23.4768 13.5653 23.4768C13.1881 23.4768 12.8823 23.7687 12.8823 24.1287C12.8823 24.4888 13.1881 24.7807 13.5653 24.7807Z" fill="#E0B13B"/>
<path d="M27.3007 34.7768C27.6779 34.7768 27.9836 34.4849 27.9836 34.1248C27.9836 33.7648 27.6779 33.4729 27.3007 33.4729C26.9235 33.4729 26.6177 33.7648 26.6177 34.1248C26.6177 34.4849 26.9235 34.7768 27.3007 34.7768Z" fill="#E0B13B"/>
<path d="M13.5653 34.7768C13.9425 34.7768 14.2483 34.4849 14.2483 34.1248C14.2483 33.7648 13.9425 33.4729 13.5653 33.4729C13.1881 33.4729 12.8823 33.7648 12.8823 34.1248C12.8823 34.4849 13.1881 34.7768 13.5653 34.7768Z" fill="#E0B13B"/>
<path d="M24.4921 25.0895V28.4598C24.4921 28.7713 24.3122 29.0574 24.0239 29.2037L21.3012 30.5865V31.0573C21.3012 31.1804 21.1964 31.2811 21.0667 31.2811H19.7698C19.6409 31.2811 19.5354 31.1804 19.5354 31.0573V30.0802C19.5354 29.7687 19.716 29.4826 20.0036 29.3363L22.727 27.9535V25.9319H18.517V27.2118C18.517 27.3284 18.4184 27.4226 18.2962 27.4226H16.9728C16.8506 27.4226 16.752 27.3284 16.752 27.2118V25.0895C16.752 24.6244 17.1473 24.2471 17.6345 24.2471H23.6095C24.0967 24.2471 24.4921 24.6244 24.4921 25.0895Z" fill="#E0B13B"/>
<path d="M21.3014 33.062V34.1731C21.3014 34.3462 21.1542 34.4868 20.9721 34.4868H19.865C19.6829 34.4868 19.5356 34.3462 19.5356 34.1731V33.062C19.5356 32.8888 19.6829 32.7483 19.865 32.7483H20.9721C21.1542 32.7483 21.3014 32.8888 21.3014 33.062Z" fill="#E0B13B"/>
<path d="M27.1911 13.6609L27.1896 13.6475C27.1896 13.6475 27.1436 11.1486 27.1436 11.0457C27.1436 10.9428 13.8089 11.0457 13.8089 11.0457V13.6588V13.6609C13.1692 14.9146 12.909 16.1683 13.028 17.4228C13.1677 18.8843 14.4552 20 15.9876 20H25.0235C26.5859 20 27.8984 18.8427 27.9889 17.3481C28.0595 16.1804 27.794 14.9512 27.1911 13.6609Z" fill="#FFF5DA"/>
<path d="M15.5465 17.4096C15.4477 16.1488 15.6635 14.8886 16.1939 13.6285V13.6264V11H13.6706V13.6264V13.6285C13.1403 14.8886 12.9245 16.1488 13.0232 17.4096C13.139 18.8786 14.2064 20 15.4767 20H18C16.7296 20.0001 15.6623 18.8787 15.5465 17.4096Z" fill="#F9E6B9"/>
<path d="M29 10.8148V11.7525C29 12.911 28.106 13.8643 26.9565 13.9858C26.874 13.9955 26.7901 13.9999 26.7054 13.9999H25.4477C25.3168 13.9999 25.1936 13.9555 25.096 13.8799C24.9992 13.8043 24.9266 13.6977 24.8963 13.5733C24.7965 13.1622 24.4796 12.834 24.0666 12.7133C21.2509 11.8904 18.5441 11.9415 15.9273 12.7133C15.5166 12.834 15.2035 13.1622 15.1044 13.5711L15.1037 13.5733C15.0432 13.823 14.8148 14 14.5523 14H13.2946C13.2605 14 13.2265 13.9993 13.1933 13.9978C11.9726 13.9459 11 12.9607 11 11.7526V10.8148C10.9998 5.94662 15.0294 2 19.9999 2C24.9704 2 29 5.94662 29 10.8148Z" fill="#17C178"/>
<path d="M14.3321 11.7526V10.8148C14.3321 6.4837 17.6401 2.88219 22 2.14028C21.4593 2.04818 20.9026 2 20.3339 2C15.1792 2 11 5.94665 11 10.8148V11.7526C11 12.9607 12.0087 13.9459 13.2746 13.9978C13.3091 13.9994 13.3444 14 13.3797 14H14.6841C14.9563 14 15.1932 13.823 15.2559 13.5733L15.2567 13.5711C15.2595 13.5598 15.2631 13.5488 15.2663 13.5377C14.6986 13.127 14.3321 12.4804 14.3321 11.7526Z" fill="#00B764"/>
<path d="M29.3874 10.6199V11.5369C29.3874 11.852 29.3176 12.1512 29.1924 12.4221C28.3311 12.3475 27.6193 11.7825 27.3643 11.022C27.2983 10.8271 27.2627 10.6185 27.2627 10.4026C27.2627 9.38129 28.0542 8.53677 29.0831 8.39551C29.282 9.10524 29.3874 9.85062 29.3874 10.6199Z" fill="#EDE6F5"/>
<path d="M28.2317 6.39894C27.8538 6.59595 27.4205 6.70824 26.9591 6.70824C25.4923 6.70824 24.3032 5.57319 24.3032 4.17306C24.3032 3.75364 24.411 3.35813 24.5999 3.00903C26.1236 3.78402 27.3871 4.9647 28.2317 6.39894Z" fill="#EDE6F5"/>
<path d="M20.3571 9.75055C21.8239 9.75055 23.013 8.61551 23.013 7.21536C23.013 5.81522 21.8239 4.68018 20.3571 4.68018C18.8903 4.68018 17.7012 5.81522 17.7012 7.21536C17.7012 8.61551 18.8903 9.75055 20.3571 9.75055Z" fill="#EDE6F5"/>
<path d="M16.1152 3.00903C16.3041 3.35813 16.4119 3.75364 16.4119 4.17306C16.4119 5.57319 15.2228 6.70824 13.756 6.70824C13.2946 6.70824 12.8613 6.59595 12.4834 6.39894C13.3279 4.96478 14.5914 3.78409 16.1152 3.00903Z" fill="#EDE6F5"/>
<path d="M13.452 10.4025C13.452 10.6082 13.4201 10.8066 13.3601 10.9935C13.1135 11.7686 12.3941 12.3458 11.5222 12.4219C11.397 12.151 11.3271 11.8518 11.3271 11.5368V10.6197C11.3271 9.85045 11.4326 9.10514 11.6314 8.39526C12.6605 8.53659 13.452 9.38111 13.452 10.4025Z" fill="#EDE6F5"/>
<path d="M17.8153 17.4648C17.4381 17.4648 17.1323 17.1729 17.1323 16.8129V14.495C17.1323 14.1349 17.4381 13.843 17.8153 13.843C18.1925 13.843 18.4983 14.1349 18.4983 14.495V16.8129C18.4983 17.1729 18.1925 17.4648 17.8153 17.4648Z" fill="#F4D892"/>
<path d="M23.0511 17.4648C23.4284 17.4648 23.7341 17.1729 23.7341 16.8129V14.495C23.7341 14.1349 23.4284 13.843 23.0511 13.843C22.6739 13.843 22.3682 14.1349 22.3682 14.495V16.8129C22.3682 17.1729 22.6739 17.4648 23.0511 17.4648Z" fill="#F4D892"/>
</svg>
