<svg width="26" height="32" viewBox="0 0 26 32" fill="none" xmlns="http://www.w3.org/2000/svg">
<path fill-rule="evenodd" clip-rule="evenodd" d="M19.5687 32C23.1206 32 26 29.0612 26 25.4359L26 9.02564C26 5.40039 23.1206 2.46154 19.5687 2.46154L14.7452 2.46154L14.7452 32H19.5687ZM20.7477 24.2267C19.5045 24.2267 18.4968 25.2707 18.4968 26.5587C18.4968 27.8466 19.5045 28.8906 20.7477 28.8906C21.9909 28.8906 22.9987 27.8466 22.9987 26.5587C22.9987 25.2707 21.9909 24.2267 20.7477 24.2267Z" fill="#3C3A3B"/>
<path fill-rule="evenodd" clip-rule="evenodd" d="M6.43131 0C2.87939 0 0 2.93885 0 6.5641V22.9744C0 26.5996 2.87939 29.5385 6.43131 29.5385H11.2548V0H6.43131ZM5.25229 7.77332C6.49545 7.77332 7.50324 6.72926 7.50324 5.44134C7.50324 4.15342 6.49545 3.10936 5.25229 3.10936C4.00912 3.10936 3.00133 4.15342 3.00133 5.44134C3.00133 6.72926 4.00912 7.77332 5.25229 7.77332Z" fill="#EC1A25"/>
</svg>
