<svg width="40" height="40" viewBox="0 0 40 40" fill="none" xmlns="http://www.w3.org/2000/svg">
<path d="M15 14.7268V18H9V14.7268C9 13.2202 10.3433 12 12 12C12.8287 12 13.5785 12.3048 14.1211 12.798C14.6645 13.292 15 13.9735 15 14.7268Z" fill="#AFB9D2"/>
<path d="M15 17H9V18H15V17Z" fill="#959CB3"/>
<path d="M37 8V33.5491C37 33.7979 36.8054 34 36.566 34H3.43404C3.19458 34 3 33.7979 3 33.5491V19.5723H20.314L21.0605 18.7931L31.4059 8H37Z" fill="#FFA511"/>
<path d="M37 21V24.6611L30.1341 27.0668L26.6503 28.2879L10.3498 34H3.43404C3.19458 34 3 33.8041 3 33.5631V32.9151L13.1804 29.3472L19.7439 27.0471L23.7956 25.6272L31.0275 23.0925L37 21Z" fill="#EF7B3A"/>
<path d="M37 13V16.7602L33.6 17.9839L31.0276 18.91L22.7685 21.8834L19.8481 22.9344L12.4933 25.5823L3 29V25.2398L5.65492 24.2838L11.3394 22.238L12.3688 21.8669L18.9062 19.5138L21.0605 18.7379L31.0276 15.1498L32.1821 14.7346L37 13Z" fill="#EF7B3A"/>
<path d="M37 8V18.4768C36.566 18.6894 36.0827 18.8079 35.5735 18.8079C33.7035 18.8079 32.1821 17.211 32.1821 15.248V12.9814C32.1821 12.6472 31.9232 12.3754 31.6048 12.3754C31.2865 12.3754 31.0276 12.6472 31.0276 12.9814V24.522C31.0276 26.6528 29.3767 28.3864 27.3468 28.3864C25.317 28.3864 23.6654 26.6528 23.6654 24.522V23.828C23.6654 22.6927 22.7858 21.7694 21.7043 21.7694C20.6235 21.7694 19.7439 22.6927 19.7439 23.828V27.1949C19.7439 29.293 18.1176 31 16.1181 31C14.1194 31 12.4932 29.293 12.4932 27.1949V22.4566C12.4932 22.1233 12.2342 21.8513 11.9159 21.8513C11.5976 21.8513 11.3393 22.1232 11.3393 22.4566V23.5189C11.3393 25.2115 10.0271 26.5889 8.41391 26.5889C6.80142 26.5889 5.4892 25.2114 5.4892 23.5189V22.9471C5.4892 22.3427 5.02117 21.8513 4.44529 21.8513H3V19.694H20.314L21.0605 18.9066L31.4059 8H37Z" fill="#EB6B24"/>
<path d="M13.1235 29.4624L19.6955 27.0471V27.2207C19.6955 29.3333 18.0671 31.052 16.0651 31.052C14.8562 31.052 13.7834 30.4251 13.1235 29.4624Z" fill="#E0510A"/>
<path d="M5.58789 24.5438L11.2798 22.4526V23.5192C11.2798 25.2235 9.9659 26.6104 8.35061 26.6104C7.0757 26.6105 5.98846 25.7465 5.58789 24.5438Z" fill="#E0510A"/>
<path d="M30.9936 15.2075V19.0511L22.7238 22.0903C22.4166 21.8801 22.0509 21.7578 21.6582 21.7578C20.7963 21.7578 20.0625 22.3473 19.7996 23.1646L12.4351 25.8712V22.4496C12.4351 22.3074 12.3888 22.1767 12.3105 22.0735L18.8564 19.6681H20.266L21.0135 18.8753L30.9936 15.2075Z" fill="#E0510A"/>
<path d="M30.9932 22.8945V24.5292C30.9932 25.4979 30.6557 26.3856 30.0986 27.0676L26.6102 28.3498C25.2289 28.07 24.1192 26.9729 23.752 25.556L30.9932 22.8945Z" fill="#E26F2E"/>
<path d="M36.9741 13.01V16.8536L33.5697 18.1045C32.7106 17.4538 32.1499 16.3902 32.1499 15.1914V14.7831L36.9741 13.01Z" fill="#E0510A"/>
<path d="M37 28V31.8675L31.3131 34H21L37 28Z" fill="#EF7B3A"/>
<path d="M2.5 18H18L28.2944 6H37.5654C37.8054 6 38 6.20631 38 6.46087V15.0643C38 16.5018 36.9011 17.6672 35.5455 17.6672C34.1898 17.6672 33.0909 16.5018 33.0909 15.0643V12.7712C33.0909 11.8813 32.4106 11.1599 31.5715 11.1599C30.7323 11.1599 30.052 11.8813 30.052 12.7712V24.4456C30.052 26.0529 28.8234 27.3558 27.3077 27.3558C25.7921 27.3558 24.5634 26.0529 24.5634 24.4456V23.7432C24.5634 22.0419 23.2628 20.6626 21.6584 20.6626C20.054 20.6626 18.7534 22.0419 18.7534 23.7432V27.1492C18.7534 28.7236 17.5497 30 16.065 30C14.5803 30 13.3767 28.7236 13.3767 27.1492V22.3565C13.3767 21.4666 12.6964 20.7452 11.8573 20.7452C11.0181 20.7452 10.3378 21.4666 10.3378 22.3565V23.4308C10.3378 24.5944 9.4482 25.5379 8.35077 25.5379C7.2534 25.5379 6.36373 24.5945 6.36373 23.4308V22.8523C6.36373 21.6886 5.47414 20.7452 4.3767 20.7452H2.4346C2.19455 20.7452 2 20.5388 2 20.2843V18.9834C2 18.729 2.25995 18 2.5 18Z" fill="#6EED4A"/>
<path d="M38 6.47252V7.18599H28.7291L18.1115 18.73C17.9526 18.9028 17.7369 19 17.512 19H2V18.2857C2 18.0247 2.19455 17.8132 2.4346 17.8132H17.4285L28.2945 6H37.5654C37.8054 6 38 6.21153 38 6.47252Z" fill="#8AFF64"/>
<path d="M27.5095 20.1568C27.2095 20.1568 26.9663 19.9001 26.9663 19.5834V19.5116C26.9663 19.1949 27.2095 18.9382 27.5095 18.9382C27.8096 18.9382 28.0528 19.195 28.0528 19.5116V19.5834C28.0528 19.9001 27.8096 20.1568 27.5095 20.1568Z" fill="#3EB500"/>
<path d="M24.4671 19.0692C24.167 19.0692 23.9238 18.8125 23.9238 18.4958V18.424C23.9238 18.1072 24.167 17.8506 24.4671 17.8506C24.7671 17.8506 25.0103 18.1073 25.0103 18.424V18.4958C25.0103 18.8126 24.7671 19.0692 24.4671 19.0692Z" fill="#3EB500"/>
<path d="M16.3059 25.1865C16.0059 25.1865 15.7627 24.9298 15.7627 24.6131V24.5414C15.7627 24.2247 16.0059 23.968 16.3059 23.968C16.606 23.968 16.8492 24.2247 16.8492 24.5414V24.6131C16.8492 24.9299 16.606 25.1865 16.3059 25.1865Z" fill="#3EB500"/>
<path d="M35.5257 14.9405C35.2256 14.9405 34.9824 14.6838 34.9824 14.3671V14.2953C34.9824 13.9786 35.2256 13.7219 35.5257 13.7219C35.8257 13.7219 36.0689 13.9786 36.0689 14.2953V14.3671C36.069 14.6838 35.8257 14.9405 35.5257 14.9405Z" fill="#3EB500"/>
<path d="M8.53152 22.4031C8.23149 22.4031 7.98828 22.1464 7.98828 21.8297V21.758C7.98828 21.4412 8.23149 21.1846 8.53152 21.1846C8.83154 21.1846 9.07475 21.4413 9.07475 21.758V21.8297C9.07475 22.1464 8.83154 22.4031 8.53152 22.4031Z" fill="#3EB500"/>
<path d="M4.43777 9.78118C4.27064 9.78118 4.10576 9.69998 3.9993 9.54687C3.82184 9.29148 3.87408 8.93256 4.11602 8.7453L4.86225 8.16744L4.11602 7.58957C3.87408 7.40224 3.82184 7.04339 3.99938 6.78801C4.17691 6.53262 4.51688 6.47748 4.75875 6.66488L6.10207 7.70513C6.24157 7.81319 6.32398 7.98486 6.32398 8.16744C6.32398 8.35002 6.24157 8.52183 6.10207 8.62975L4.75868 9.67007C4.66186 9.74511 4.54936 9.78118 4.43777 9.78118Z" fill="#52EA28"/>
<path d="M7.81717 9.78101C7.65004 9.78101 7.48515 9.69981 7.3787 9.5467C7.20123 9.29131 7.25347 8.93239 7.49542 8.74506L8.24164 8.16727L7.49542 7.58933C7.25347 7.402 7.20123 7.04315 7.37877 6.78776C7.55631 6.53238 7.89627 6.47723 8.13814 6.66463L9.48147 7.70488C9.62097 7.81295 9.70337 7.98461 9.70337 8.16719C9.70337 8.34977 9.62097 8.52159 9.48147 8.62958L8.13807 9.66975C8.04125 9.74494 7.92868 9.78101 7.81717 9.78101Z" fill="#52EA28"/>
<path d="M11.1961 9.78101C11.0289 9.78101 10.8641 9.69981 10.7576 9.5467C10.5801 9.29131 10.6324 8.93239 10.8743 8.74513L11.6206 8.16727L10.8743 7.58933C10.6324 7.402 10.5801 7.04315 10.7577 6.78776C10.9352 6.53238 11.2751 6.47723 11.5171 6.66463L12.8604 7.70488C12.9999 7.81295 13.0823 7.98461 13.0823 8.16719C13.0823 8.34977 12.9999 8.52159 12.8604 8.6295L11.5171 9.66968C11.4202 9.74494 11.3077 9.78101 11.1961 9.78101Z" fill="#52EA28"/>
</svg>
