<svg width="20" height="20" viewBox="0 0 20 20" fill="none" xmlns="http://www.w3.org/2000/svg">
<path d="M17.0783 6.63997L9.12833 0.806636C8.50741 0.351957 7.77269 0.078131 7.00564 0.0155218C6.23859 -0.0470874 5.46919 0.103966 4.78275 0.451934C4.0963 0.799901 3.51965 1.33118 3.11672 1.98687C2.71378 2.64256 2.50032 3.39704 2.5 4.16664V15.8333C2.50014 16.6032 2.71361 17.3581 3.11673 18.0141C3.51985 18.6701 4.09684 19.2015 4.78368 19.5495C5.47052 19.8974 6.24034 20.0483 7.00771 19.9852C7.77507 19.9222 8.50996 19.6478 9.13083 19.1925L17.0808 13.3591C17.6086 12.9721 18.0377 12.4663 18.3335 11.8825C18.6293 11.2988 18.7835 10.6536 18.7835 9.99914C18.7835 9.34472 18.6293 8.6995 18.3335 8.11575C18.0377 7.532 17.6086 7.02614 17.0808 6.63914L17.0783 6.63997ZM16.0917 12.015L8.14167 17.8483C7.76918 18.1205 7.32864 18.2843 6.86881 18.3216C6.40898 18.3589 5.9478 18.2683 5.53631 18.0597C5.12482 17.8511 4.77907 17.5327 4.53734 17.1397C4.2956 16.7468 4.16731 16.2946 4.16667 15.8333V4.16664C4.16204 3.70443 4.28791 3.25029 4.52981 2.85641C4.77172 2.46252 5.11983 2.14488 5.53417 1.93997C5.88658 1.76071 6.27629 1.66707 6.67167 1.66664C7.20158 1.66866 7.71685 1.84071 8.14167 2.15747L16.0917 7.9908C16.4079 8.22305 16.6651 8.52647 16.8423 8.87653C17.0195 9.22658 17.1119 9.61344 17.1119 10.0058C17.1119 10.3982 17.0195 10.785 16.8423 11.1351C16.6651 11.4851 16.4079 11.7886 16.0917 12.0208V12.015Z" fill="#3C3A3B"/>
</svg>
