<svg width="30" height="30" viewBox="0 0 30 30" fill="none" xmlns="http://www.w3.org/2000/svg">
<path d="M28.6584 12.9951C28.3635 12.5568 27.9165 12.2547 27.3969 12.1402C27.7321 11.509 27.7184 10.7213 27.2914 10.0867C26.9876 9.63484 26.5294 9.34303 26.0305 9.23259C26.1195 9.06554 26.1853 8.88524 26.2245 8.69512C26.3335 8.1664 26.2271 7.62764 25.9244 7.17796C25.6296 6.73939 25.1826 6.43733 24.6629 6.32304C24.9982 5.69179 24.9845 4.90416 24.5575 4.26927C23.9332 3.34108 22.6578 3.0858 21.7148 3.7006L19.673 5.0319C18.5847 4.48845 17.4271 4.10286 16.2257 3.88325C15.846 3.31566 15.4044 2.78801 14.9101 2.31633L14.0654 1.51033C13.4468 0.919871 12.4767 0.831218 11.7585 1.29969C10.9088 1.85362 10.6753 2.98497 11.238 3.82152C11.2601 3.85463 11.2818 3.88795 11.3033 3.92128C8.5344 4.47285 6.01093 5.91951 4.14317 8.03929C2.11636 10.3398 1 13.2861 1 16.3353C1 16.9198 1.04058 17.5054 1.12086 18.0753C1.73947 22.5061 4.73726 26.3244 8.94406 28.0404C10.5041 28.677 12.1595 29 13.8634 29C16.562 29 19.1451 28.1863 21.3338 26.6472C23.475 25.1411 25.0769 23.0628 25.9668 20.6369C26.0499 20.4109 25.9307 20.1611 25.7012 20.0795C25.4714 19.9979 25.218 20.115 25.1351 20.3412C24.3064 22.6003 22.8143 24.5357 20.8196 25.9386C18.7819 27.3718 16.3765 28.1293 13.8634 28.1293C12.5641 28.1293 11.2955 27.9274 10.0812 27.5292L13.6792 25.1834C13.6794 25.1832 13.6796 25.1832 13.6799 25.183C13.6801 25.183 13.6801 25.1828 13.6803 25.1826L16.6705 23.233H16.6707C16.9391 23.0579 17.1224 22.7904 17.1867 22.4796C17.2509 22.1688 17.1884 21.8517 17.0105 21.5875L16.971 21.5285L17.5519 21.1498C17.9663 20.8795 18.4647 20.7736 18.9555 20.8511C19.6661 20.9635 20.3878 20.8097 20.9875 20.4185L25.8053 17.2774C25.7723 17.6889 25.7181 18.098 25.6424 18.5002C25.5977 18.7367 25.7563 18.964 25.9965 19.0078C26.0236 19.0129 26.0509 19.0153 26.0776 19.0153C26.2866 19.0153 26.4723 18.8687 26.5118 18.6591C26.6344 18.0099 26.7049 17.3449 26.7231 16.6791L28.0808 15.7938C28.5375 15.496 28.8493 15.0408 28.9583 14.5123C29.0674 13.9836 28.9609 13.4448 28.6584 12.9951ZM18.8145 5.5916L17.4633 6.47258L17.1973 5.76698C17.0862 5.47261 16.9588 5.184 16.8178 4.90159C17.5033 5.07271 18.1707 5.30342 18.8145 5.5916ZM4.81125 8.60988C6.60632 6.57256 9.05146 5.20302 11.7264 4.72813C12.1556 5.75181 12.2584 6.89555 12.0019 7.98567L10.9238 12.5715C10.7543 12.3934 10.5343 12.2705 10.2865 12.221C9.97059 12.1575 9.64881 12.2193 9.3804 12.3944L6.32641 14.3854C6.3262 14.3854 6.3262 14.3854 6.32598 14.3856C6.32598 14.3856 6.32576 14.3856 6.32576 14.3858L1.92108 17.2576C1.89699 16.9517 1.88441 16.6434 1.88441 16.3353C1.88441 13.4959 2.92396 10.7521 4.81125 8.60988ZM16.3201 22.3059C16.3029 22.3888 16.2539 22.4604 16.1821 22.5071H16.1823L13.556 24.2193L8.68151 17.0623C8.54546 16.8626 8.27077 16.8094 8.06789 16.9433C7.86523 17.0773 7.81099 17.3475 7.94704 17.5472L12.8184 24.7002L9.06925 27.1447C5.34371 25.5404 2.67769 22.1523 2.03673 18.2099L6.44662 15.3441L6.95414 16.0897C7.03963 16.2149 7.17936 16.2826 7.32192 16.2826C7.40654 16.2826 7.49225 16.2589 7.56775 16.2089C7.77063 16.0749 7.82488 15.8045 7.68883 15.6048L7.18479 14.8646L9.86882 13.1203C9.94021 13.0735 10.0259 13.0573 10.1101 13.0742C10.1943 13.0911 10.267 13.1393 10.3145 13.2098L16.2732 22.0684C16.3205 22.1386 16.3372 22.223 16.3201 22.3059ZM28.0916 14.3388C28.0296 14.6396 27.8523 14.8985 27.5924 15.0679L26.0403 16.0799C26.0399 16.0801 26.0394 16.0805 26.0388 16.0807L20.4991 19.6927C20.0847 19.9629 19.5863 20.0691 19.0954 19.9913C18.3851 19.8791 17.6634 20.0327 17.0634 20.4239L16.4826 20.8026L11.6023 13.5474L12.8638 8.18221C13.1886 6.80006 13.0174 5.34422 12.3986 4.07594C12.3929 4.0627 12.3869 4.04988 12.3799 4.03727C12.261 3.79759 12.1261 3.56495 11.9753 3.34065C11.6819 2.90443 11.8036 2.31462 12.2469 2.02558C12.6214 1.78141 13.1274 1.82756 13.4499 2.13539L14.2946 2.9416C15.2083 3.81382 15.9254 4.89561 16.368 6.07011L16.828 7.29012C16.8289 7.29247 16.8297 7.29439 16.8306 7.29652C16.8317 7.2993 16.833 7.30229 16.8341 7.30507C16.8373 7.31255 16.8404 7.31938 16.8436 7.32515C16.8525 7.34352 16.8623 7.36168 16.874 7.37898C17.009 7.57957 17.2832 7.63448 17.4868 7.5016L22.2032 4.42671C22.7396 4.07701 23.465 4.22206 23.8202 4.75014C24.1754 5.27821 24.028 5.99235 23.4917 6.34206L23.0822 6.60908C23.0822 6.60908 23.082 6.60908 23.0818 6.6093L22.1685 7.20488C22.1672 7.20573 22.1664 7.20659 22.1651 7.20723C22.1598 7.21086 22.1549 7.21428 22.1507 7.2177C21.962 7.3542 21.9131 7.61375 22.044 7.80815C22.1787 8.00874 22.4532 8.06364 22.6569 7.93077L23.5709 7.33476C23.8306 7.16579 24.1415 7.10619 24.4468 7.16728C24.7521 7.22838 25.0153 7.40291 25.1871 7.65883C25.3592 7.91454 25.42 8.22109 25.3579 8.52165C25.2959 8.82243 25.1186 9.08135 24.8586 9.25075L23.5355 10.1136C23.3318 10.2462 23.276 10.5163 23.411 10.7168C23.496 10.8433 23.6366 10.9119 23.78 10.9119C23.8638 10.9119 23.9486 10.8884 24.0237 10.8395L24.2285 10.706L24.9372 10.2439C25.4738 9.89418 26.1989 10.0392 26.5541 10.5673C26.9093 11.0956 26.762 11.8095 26.2256 12.1594L25.5647 12.5903C25.5612 12.5925 25.5577 12.5948 25.5543 12.5972L24.9025 13.0221C24.6987 13.1547 24.643 13.4249 24.7779 13.6255C24.863 13.752 25.0036 13.8206 25.147 13.8206C25.2308 13.8206 25.3156 13.7971 25.3907 13.7482L25.5955 13.6146C25.5955 13.6146 25.5955 13.6144 25.5957 13.6144L26.3044 13.1526C26.5641 12.9832 26.8752 12.9234 27.1808 12.9847C27.4863 13.0456 27.7492 13.2203 27.9213 13.476C28.0932 13.7317 28.1537 14.0383 28.0916 14.3388Z" fill="#01BA00" stroke="#01BA00"/>
</svg>
