<svg width="30" height="30" viewBox="0 0 30 30" fill="none" xmlns="http://www.w3.org/2000/svg">
<path d="M5.87549 22.125C4.62549 20.75 3.87549 19.25 3.87549 16.75C3.87549 12.375 7.00049 8.5 11.3755 6.5L12.5005 8.125C8.37549 10.375 7.50049 13.25 7.25049 15.125C7.87549 14.75 8.75049 14.625 9.62549 14.75C11.8755 15 13.6255 16.75 13.6255 19.125C13.6255 20.25 13.1255 21.375 12.3755 22.25C11.5005 23.125 10.5005 23.5 9.25049 23.5C7.87549 23.5 6.62549 22.875 5.87549 22.125ZM18.3755 22.125C17.1255 20.75 16.3755 19.25 16.3755 16.75C16.3755 12.375 19.5005 8.5 23.8755 6.5L25.0005 8.125C20.8755 10.375 20.0005 13.25 19.7505 15.125C20.3755 14.75 21.2505 14.625 22.1255 14.75C24.3755 15 26.1255 16.75 26.1255 19.125C26.1255 20.25 25.6255 21.375 24.8755 22.25C24.1255 23.125 23.0005 23.5 21.7505 23.5C20.3755 23.5 19.1255 22.875 18.3755 22.125Z" fill="white"/>
</svg>
