<svg width="24" height="24" viewBox="0 0 24 24" fill="none" xmlns="http://www.w3.org/2000/svg">
<g clip-path="url(#clip0_1744_559)">
<path d="M23.725 11.3364C23.7247 11.3361 23.7245 11.3358 23.7242 11.3355L18.8256 6.46049C18.4586 6.09529 17.865 6.09665 17.4997 6.46368C17.1345 6.83067 17.1359 7.42424 17.5028 7.78949L20.7918 11.0625L0.937501 11.0625C0.41972 11.0625 9.25758e-07 11.4822 1.01629e-06 12C1.10682e-06 12.5178 0.41972 12.9375 0.937501 12.9375L20.7917 12.9375L17.5029 16.2105C17.1359 16.5757 17.1345 17.1693 17.4998 17.5363C17.865 17.9034 18.4587 17.9047 18.8256 17.5395L23.7242 12.6645C23.7245 12.6642 23.7247 12.6639 23.7251 12.6636C24.0922 12.2971 24.0911 11.7016 23.725 11.3364Z" fill="white"/>
</g>
<defs>
<clipPath id="clip0_1744_559">
<rect width="24" height="24" fill="white"/>
</clipPath>
</defs>
</svg>
