<svg width="40" height="40" viewBox="0 0 40 40" fill="none" xmlns="http://www.w3.org/2000/svg">
<path d="M37.6373 4C37.6373 4 36.7825 4.66601 35.8689 6.41207C35.8689 6.41207 32.6613 19.1389 32 28.8193L33.7839 30C33.7839 30 36.6184 19.3878 37.7065 11.6755C37.7065 11.6755 38.4108 7.21793 37.6373 4Z" fill="url(#paint0_linear_1709_1565)"/>
<path d="M35.9428 7.82209L35.785 6C35.328 7.06382 34.8557 8.51255 34.5071 10.4356C34.5071 10.4356 32.5588 19.7158 32 29.5853L34.0428 30C34.0428 30 34.187 29.349 34.4176 28.2514L33.7453 27.5893C33.636 27.4817 33.5532 27.3438 33.5048 27.189C33.4564 27.0342 33.4441 26.8678 33.4691 26.706L35.8197 11.5014C36.0073 10.287 36.0488 9.04918 35.9428 7.82209Z" fill="url(#paint1_linear_1709_1565)"/>
<path d="M31.3193 34L31.0069 36.1647C30.9856 36.3123 31.0138 36.4638 31.0857 36.5879C31.1575 36.712 31.2675 36.7992 31.3929 36.8313L31.9976 36.9864C32.0628 37.0031 32.1301 37.0044 32.1957 36.9903C32.2613 36.9762 32.3239 36.9469 32.3796 36.9042C32.4354 36.8615 32.4833 36.8062 32.5204 36.7416C32.5576 36.677 32.5833 36.6044 32.5961 36.528L33 34.1076L31.3193 34Z" fill="url(#paint2_linear_1709_1565)"/>
<path d="M29.9631 29.2746L32.9545 29L35.6108 30.3255C35.7463 30.3931 35.8553 30.4957 35.9232 30.6198C35.9911 30.7438 36.0148 30.8832 35.991 31.0195L35.8198 32L29 30.9628L29.2973 29.7987C29.3326 29.6605 29.4158 29.5356 29.5352 29.4415C29.6547 29.3475 29.8043 29.2891 29.9631 29.2746Z" fill="url(#paint3_linear_1709_1565)"/>
<path d="M24.5116 20C24.5116 20 23.7519 24.5401 25 28.3158L23.589 31C23.589 31 21 28.6105 21 24.5401L21.8739 20.6761L24.5116 20Z" fill="url(#paint4_linear_1709_1565)"/>
<path d="M21.9954 20.7013L21 24.7094C21.0016 26.2073 21.3781 27.6815 22.0961 29C22.3066 28.1118 22.945 26.6868 24.8593 25.5356C24.6626 23.6922 24.7099 21.8313 25 20L21.9954 20.7013Z" fill="#D57370"/>
<path d="M15.1087 11.1604L12 18L23 17.8358L20.9853 10L15.1087 11.1604Z" fill="#C36739"/>
<path d="M20.7559 30C20.7559 30 20.5346 32.6759 21 35.2733L18.1325 36.9019C18.1325 36.9019 15.0138 37.7161 12 34.653L13.4175 30H20.7559Z" fill="url(#paint5_linear_1709_1565)"/>
<path d="M21.9976 28.4698C21.9334 28.9516 21.8759 29.4581 21.8405 29.943C21.8129 30.2954 21.6503 30.6285 21.38 30.8862C20.596 31.6447 19.6875 32.2921 18.6857 32.8061C18.6377 32.83 18.5891 32.8517 18.5397 32.8714L17.7854 33C17.5781 32.9934 17.3738 32.9537 17.1821 32.8827C16.9417 32.7936 16.6516 32.6782 16.3218 32.5323C16.3218 32.5323 13.632 31.1931 12 29.8369L12.5839 25C12.5839 25 22.1738 27.1482 21.9976 28.4698Z" fill="url(#paint6_radial_1709_1565)"/>
<path d="M12 30.1376C13.1914 31.2841 14.5375 32.2481 15.9967 33C16.8777 30.4442 17.0172 27.8852 16.9984 26.3321C14.7873 25.5785 12.5401 25 12.5401 25L12 30.1376Z" fill="url(#paint7_linear_1709_1565)"/>
<path d="M13 27.8677C14.3498 29.0109 16.3943 30.5206 18.256 31C18.256 31 20.0862 30.8481 21.641 28.4779C21.7967 27.1539 22 26.0151 22 26.0151L13.306 25L13 27.8677Z" fill="url(#paint8_linear_1709_1565)"/>
<path d="M22.7522 19.7047L23 22.6794C22.9674 23.8392 22.6475 24.9683 22.0736 25.9489C21.3949 27.112 20.2707 28.8006 18.9981 29.754C18.8218 29.8831 18.6193 29.9643 18.4077 29.9906C18.1962 30.017 17.9819 29.9876 17.7831 29.9051C17.6008 29.8315 17.3857 29.7364 17.1458 29.6154C17.1458 29.6154 12.2113 26.3913 11 20.8781L12.1652 19.4388C17.4919 18.3149 22.7522 19.7047 22.7522 19.7047Z" fill="url(#paint9_radial_1709_1565)"/>
<path d="M14.1693 21.1976L14.3131 19C13.5702 19.072 12.8311 19.1929 12.0993 19.3622L11 20.8666C12.143 26.6313 15.1159 29.0605 16.7981 30C16.9581 28.7114 17.0232 27.4085 16.9927 26.1063C16.9728 25.2988 16.7343 24.5209 16.3132 23.8898C15.6572 22.9279 14.9405 22.0279 14.1693 21.1976Z" fill="url(#paint10_linear_1709_1565)"/>
<path d="M21.1859 19L21 19.9619C21 19.9619 21.3998 23.13 22.9968 22.9959C22.9968 22.9775 22.9979 22.9591 22.9982 22.9409C23.0128 21.7633 22.9399 20.5869 22.7807 19.433C22.7807 19.433 22.1768 19.2147 21.1859 19Z" fill="url(#paint11_linear_1709_1565)"/>
<path d="M17.6889 16C15.7312 16.3361 13.8309 16.705 12 17.2561L12.7696 19.5791C12.7696 19.5791 14.2113 21.7156 17.5869 22.8887C17.9158 23.0023 18.2698 23.0296 18.6131 22.9676C18.9563 22.9056 19.2766 22.7566 19.5415 22.5357C20.2527 21.9474 20.9332 21.3248 21.5802 20.6703C22.116 20.1219 23 16.8976 23 16.8976C21.2568 16.4625 19.4809 16.1624 17.6889 16Z" fill="url(#paint12_linear_1709_1565)"/>
<path d="M15 17C13.98 17.2136 12.9789 17.4569 12 17.759L12.707 19.9483C12.983 20.3326 13.3007 20.6853 13.6544 21C13.992 20.256 14.1139 19.4328 14.0064 18.6235C14.2882 18.4494 14.5249 18.2118 14.6975 17.9297C14.8701 17.6477 14.9737 17.3292 15 17Z" fill="url(#paint13_linear_1709_1565)"/>
<path d="M16 17.36C16.0001 17.7949 16.1582 18.212 16.4394 18.5195C16.7206 18.827 17.102 18.9998 17.4997 19C17.8975 19 18.279 18.8273 18.5604 18.5197C18.8417 18.2122 18.9999 17.795 19 17.36V16C17.8805 16.3589 16.7976 16.7462 16 17.36Z" fill="url(#paint14_linear_1709_1565)"/>
<path d="M16 17C17.1034 16.9174 18.1517 16.5201 19 15.8629V14L16 14.6309V17Z" fill="#D57370"/>
<path d="M16.7206 5C16.7206 5 12.3831 5.09091 13.0747 11.665C13.0747 11.665 14.0147 14.601 16.622 15.8705C16.8071 15.9615 17.0141 16.0059 17.2229 15.9994C17.4317 15.9929 17.6352 15.9357 17.8134 15.8334C18.7328 15.3072 19.4852 14.5591 19.9922 13.6668C20.1325 11.9335 18.3638 8.40793 16.7206 5Z" fill="url(#paint15_linear_1709_1565)"/>
<path d="M18.3572 11.5121C18.867 11.8954 19.2481 12.4126 19.4539 13C19.8219 12.3088 20.0092 11.5429 19.9997 10.7677L17.0108 6L16.0201 6.32812C16.0201 6.32812 15.6229 9.49393 18.3572 11.5121Z" fill="#D57370"/>
<path d="M10.724 15.0003C10.724 15.0003 7.57579 14.9026 7.01588 18.2191C6.94736 18.8919 7.10197 19.5691 7.45325 20.1346C7.61163 20.4015 7.83933 20.6145 8.10911 20.7481C8.37888 20.8818 8.67933 20.9304 8.97452 20.8881C9.53876 20.8004 10.1139 20.8328 10.6661 20.9835C11.2881 21.159 12.61 19.8785 12.61 19.8785C12.8609 19.3446 12.9942 18.7575 13 18.1613L10.724 15.0003Z" fill="url(#paint16_radial_1709_1565)"/>
<path d="M8.52507 20.8605C9.06448 20.7808 9.6143 20.8102 10.1422 20.9471C10.4342 21.0275 10.7435 21.016 11.0288 20.9144C11.3141 20.8127 11.5616 20.6257 11.738 20.3784C11.8363 20.2402 11.9239 20.0945 12 19.9427C11.4016 19.6082 10.7725 19.3324 10.1214 19.1192C9.79093 19.0129 9.442 18.9771 9.09695 19.0141C8.7519 19.0511 8.41833 19.1601 8.11754 19.3341C7.68244 19.5856 7.27663 19.8602 7 20.056C7.02262 20.0958 7.04505 20.1356 7.0707 20.1756C7.22208 20.4182 7.43974 20.6118 7.69766 20.7332C7.95558 20.8547 8.24283 20.8989 8.52507 20.8605Z" fill="url(#paint17_linear_1709_1565)"/>
<path d="M12.9999 19C13.0031 18.2876 12.8936 17.5801 12.6761 16.9092L11.2478 16.0572L10 16C10 16 10.4196 18.9778 12.9999 19Z" fill="url(#paint18_linear_1709_1565)"/>
<path d="M15.9273 5.82721C15.9273 5.82721 16.04 8.54547 19.1954 10.7057C20.1254 11.3424 20.6571 12.4127 20.7043 13.5196C20.719 13.9589 20.797 14.3939 20.936 14.812C21.6367 16.8501 24.7218 16.5535 24.9806 14.4188C24.9838 14.3919 24.9868 14.3645 24.9897 14.337C25.0173 14.0697 24.9893 13.7999 24.9075 13.5434C24.6789 12.8497 24.3001 12.212 23.7965 11.6736C23.4588 11.318 23.2088 10.8919 23.0655 10.4277C22.9223 9.96358 22.8896 9.47367 22.97 8.99535C23.1609 7.91828 23.183 6.43552 22.4467 4.93163C22.4467 4.93163 20.0615 0.188287 15.8724 2.76868C15.8724 2.76868 11.4246 1.73716 11.377 9.21391C11.375 9.58011 11.2898 9.94132 11.1274 10.2716C10.9651 10.6018 10.7297 10.8928 10.4383 11.1237C9.454 11.904 8.14038 13.9167 9.77049 15.9753C9.77049 15.9753 11.1163 17.6809 12.9029 16.6911C13.8219 16.1819 14.4687 14.7889 14.4863 13.7584C14.4979 13.0648 14.253 12.1448 13.8655 10.888C13.5344 9.81137 13.6927 6.97795 15.9273 5.82721Z" fill="url(#paint19_linear_1709_1565)"/>
<path d="M21.6841 34.3433C21.6458 34.2579 21.5921 34.1837 21.5267 34.1263C21.4614 34.0689 21.3861 34.0297 21.3064 34.0115C21.2267 33.9934 21.1446 33.9967 21.0662 34.0213C20.9877 34.0459 20.9148 34.0912 20.8529 34.1537C20.2477 34.7669 19.3106 35.9765 17.5106 35.9765C15.49 35.9765 14.0435 34.7692 13.2532 34.1606C13.1275 34.0633 12.9745 34.0296 12.828 34.067C12.6815 34.1043 12.5534 34.2096 12.4719 34.3597L12.0979 35.0498C12.0158 35.2004 11.9837 35.3822 12.0079 35.5596C12.032 35.737 12.1108 35.8973 12.2287 36.009C12.9716 36.7087 14.719 38 17.4748 38C19.8301 38 21.1544 36.803 21.759 36.0403C21.8866 35.8782 21.9683 35.6724 21.9925 35.4519C22.0167 35.2314 21.9822 35.0074 21.8939 34.8116L21.6841 34.3433Z" fill="url(#paint20_linear_1709_1565)"/>
<path d="M18.9992 37.0674C18.9808 36.5839 18.9448 36.102 18.8915 35.6236C18.8706 35.4359 18.7985 35.2668 18.6902 35.1515C18.582 35.0361 18.4459 34.9835 18.3104 35.0045C17.729 35.0907 17.1447 35.1322 16.56 35.129C16.4272 35.1257 16.2983 35.1924 16.1991 35.3156C16.1 35.4389 16.0378 35.6097 16.025 35.7939C15.9934 36.2745 15.9918 36.758 16.02 37.239C16.0301 37.3969 16.0768 37.5459 16.1531 37.6636C16.2294 37.7813 16.3311 37.8612 16.4428 37.8913C17.1563 38.0571 17.8858 38.033 18.5928 37.8203C18.7133 37.7815 18.8201 37.6847 18.8945 37.547C18.9688 37.4093 19.0059 37.2395 18.9992 37.0674Z" fill="url(#paint21_linear_1709_1565)"/>
<path d="M15.6622 24.9164C15.0375 23.9978 13.3949 22.0193 9.92141 20.2248C9.6351 20.077 9.31975 20 9.00006 20C8.68036 20 8.36501 20.077 8.0787 20.2248C4.60518 22.0193 2.96285 23.9978 2.33775 24.9164C2.12725 25.2276 2.01114 25.5971 2.00438 25.9775C1.84386 34.2778 6.13277 37.0063 8.07176 37.8141C8.66762 38.062 9.33238 38.062 9.92824 37.8141C11.8673 37.0063 16.1561 34.2778 15.9956 25.9775C15.989 25.5971 15.8729 25.2275 15.6622 24.9164Z" fill="url(#paint22_radial_1709_1565)"/>
<path d="M25.2403 28C25.2403 28 23.3704 29.2566 23.007 32.4795C22.9823 32.6869 23.0233 32.8968 23.1243 33.08C23.2253 33.2632 23.3812 33.4106 23.5704 33.5018C24.7217 34.0509 27.4311 35.0949 31.2288 34.9931L32 31.9688C32 31.9688 27.3695 31.2987 25.2403 28Z" fill="url(#paint23_radial_1709_1565)"/>
<path d="M31.243 34.9903L32 31.4911C31.4344 31.3782 30.8771 31.214 30.3331 31C29.9243 32.0793 28.7991 34.0481 26 34.2526C27.7061 34.8052 29.4736 35.0538 31.243 34.9903Z" fill="url(#paint24_linear_1709_1565)"/>
<path d="M31.3696 31.6792L31.0083 34.0308C30.9953 34.1153 30.9976 34.2019 31.0148 34.2854C31.0321 34.369 31.0641 34.4478 31.109 34.5174C31.1539 34.587 31.2107 34.6459 31.2761 34.6906C31.3416 34.7354 31.4144 34.7652 31.4903 34.7782L32.7289 34.9904C32.9167 35.0225 33.1083 34.9736 33.265 34.8537C33.4217 34.7337 33.5316 34.5517 33.5726 34.3445L33.9796 32.2829C34.0288 32.0353 33.9882 31.7761 33.8667 31.5619C33.7452 31.3477 33.5528 31.196 33.3314 31.14C32.9198 31.0376 32.4986 30.9911 32.0771 31.0014C31.907 31.005 31.7434 31.0746 31.6143 31.1983C31.4852 31.322 31.3987 31.492 31.3696 31.6792Z" fill="url(#paint25_linear_1709_1565)"/>
<path d="M21.5307 21C22.0727 20.4897 22.5638 19.936 22.9981 19.3455L23 17.3169C22.5105 17.1979 22.0243 17.0934 21.5415 17C20.3302 18.2082 21.5292 20.9955 21.5307 21Z" fill="url(#paint26_linear_1709_1565)"/>
<path d="M24.9911 15.0823C24.0961 14.8879 23.161 15.0408 22.3737 15.51C21.6852 15.9189 20.9639 16.6274 21.0014 17.792C21.0014 17.792 20.9677 19.4776 22.1252 20.6656C22.2956 20.8366 22.5157 20.9489 22.7538 20.9863C22.9919 21.0237 23.2357 20.9842 23.45 20.8735C24.1854 20.4963 24.989 20.2714 25.8129 20.2124C26.0748 20.1997 26.3245 20.0981 26.5212 19.9243C26.7179 19.7504 26.8499 19.5146 26.8955 19.2556C27.1212 17.9011 27.1723 15.5652 24.9911 15.0823Z" fill="url(#paint27_radial_1709_1565)"/>
<path d="M16 26.1246C15.9686 25.8399 15.8722 25.5664 15.7183 25.3258C15.2045 25.8171 14.0842 26.5315 13.1352 26.8753C12.7232 26.3087 11.7459 25.2143 9.79643 24.1941C9.55218 24.0666 9.28126 24 9.00633 24C8.73141 24 8.46049 24.0666 8.21624 24.1941C6.17013 25.2648 5.19501 26.417 4.82045 26.9554C3.97021 26.6834 2.87939 25.9695 2.2083 25.4736C2.077 25.7282 2.00571 26.01 2 26.297V26.2984C2.72277 26.815 3.73691 27.4492 4.61473 27.7222C4.56181 32.6583 7.18798 34.3085 8.40347 34.8071C8.47186 34.8346 8.54206 34.8574 8.61356 34.8751V37.9687C8.87352 38.0104 9.13836 38.0104 9.39832 37.9687V34.8751C9.46984 34.8574 9.54004 34.8347 9.60842 34.8071C10.832 34.3052 13.4837 32.6351 13.3946 27.6226C14.3346 27.2629 15.2136 26.7575 16 26.1246Z" fill="url(#paint28_radial_1709_1565)"/>
<defs>
<linearGradient id="paint0_linear_1709_1565" x1="37.3993" y1="4.2621" x2="33.8892" y2="27.2392" gradientUnits="userSpaceOnUse">
<stop stop-color="#E7EDED"/>
<stop offset="1" stop-color="#BAD0DA"/>
</linearGradient>
<linearGradient id="paint1_linear_1709_1565" x1="36.4141" y1="7.55196" x2="31.5122" y2="30.1076" gradientUnits="userSpaceOnUse">
<stop stop-color="#7791AC"/>
<stop offset="1" stop-color="#557189"/>
</linearGradient>
<linearGradient id="paint2_linear_1709_1565" x1="31.8509" y1="36.6623" x2="32.3468" y2="33.0065" gradientUnits="userSpaceOnUse">
<stop stop-color="#535365"/>
<stop offset="1" stop-color="#39394C"/>
</linearGradient>
<linearGradient id="paint3_linear_1709_1565" x1="34.1092" y1="30.1632" x2="27.6308" y2="33.2569" gradientUnits="userSpaceOnUse">
<stop stop-color="#EDB352"/>
<stop offset="0.532" stop-color="#E8913D"/>
<stop offset="1" stop-color="#E5782E"/>
</linearGradient>
<linearGradient id="paint4_linear_1709_1565" x1="20.9997" y1="25.5" x2="24.9999" y2="25.5" gradientUnits="userSpaceOnUse">
<stop stop-color="#EDCFC9"/>
<stop offset="1" stop-color="#ECA397"/>
</linearGradient>
<linearGradient id="paint5_linear_1709_1565" x1="16.5434" y1="29.1605" x2="16.4669" y2="37.6961" gradientUnits="userSpaceOnUse">
<stop stop-color="#535365"/>
<stop offset="1" stop-color="#39394C"/>
</linearGradient>
<radialGradient id="paint6_radial_1709_1565" cx="0" cy="0" r="1" gradientUnits="userSpaceOnUse" gradientTransform="translate(19.046 26.6617) scale(6.80623 6.0869)">
<stop stop-color="#E7EDED"/>
<stop offset="1" stop-color="#BAD0DA"/>
</radialGradient>
<linearGradient id="paint7_linear_1709_1565" x1="14.6432" y1="16.7681" x2="14.4848" y2="28.9919" gradientUnits="userSpaceOnUse">
<stop stop-color="#7791AC"/>
<stop offset="1" stop-color="#557189"/>
</linearGradient>
<linearGradient id="paint8_linear_1709_1565" x1="17.6205" y1="17.2616" x2="17.4732" y2="28.796" gradientUnits="userSpaceOnUse">
<stop stop-color="#7791AC"/>
<stop offset="1" stop-color="#557189"/>
</linearGradient>
<radialGradient id="paint9_radial_1709_1565" cx="0" cy="0" r="1" gradientUnits="userSpaceOnUse" gradientTransform="translate(19.8405 23.2453) scale(5.76265 6.22749)">
<stop stop-color="#E7EDED"/>
<stop offset="1" stop-color="#BAD0DA"/>
</radialGradient>
<linearGradient id="paint10_linear_1709_1565" x1="14.0773" y1="16.5284" x2="13.8859" y2="29.2005" gradientUnits="userSpaceOnUse">
<stop stop-color="#7791AC"/>
<stop offset="1" stop-color="#557189"/>
</linearGradient>
<linearGradient id="paint11_linear_1709_1565" x1="22.0457" y1="15.9926" x2="21.7744" y2="30.5112" gradientUnits="userSpaceOnUse">
<stop stop-color="#7791AC"/>
<stop offset="1" stop-color="#557189"/>
</linearGradient>
<linearGradient id="paint12_linear_1709_1565" x1="17.5052" y1="16.6956" x2="17.3635" y2="28.2685" gradientUnits="userSpaceOnUse">
<stop stop-color="#7791AC"/>
<stop offset="1" stop-color="#557189"/>
</linearGradient>
<linearGradient id="paint13_linear_1709_1565" x1="13.5024" y1="17.1862" x2="13.3655" y2="28.0923" gradientUnits="userSpaceOnUse">
<stop stop-color="#7791AC"/>
<stop offset="1" stop-color="#557189"/>
</linearGradient>
<linearGradient id="paint14_linear_1709_1565" x1="17.5002" y1="16.621" x2="17.5002" y2="19.8323" gradientUnits="userSpaceOnUse">
<stop stop-color="#EDCFC9"/>
<stop offset="1" stop-color="#ECA397"/>
</linearGradient>
<linearGradient id="paint15_linear_1709_1565" x1="16.5" y1="8.14085" x2="16.5" y2="16.3317" gradientUnits="userSpaceOnUse">
<stop stop-color="#EDCFC9"/>
<stop offset="1" stop-color="#ECA397"/>
</linearGradient>
<radialGradient id="paint16_radial_1709_1565" cx="0" cy="0" r="1" gradientUnits="userSpaceOnUse" gradientTransform="translate(8.35355 16.1695) scale(4.81422 5.09308)">
<stop stop-color="#E7EDED"/>
<stop offset="1" stop-color="#BAD0DA"/>
</radialGradient>
<linearGradient id="paint17_linear_1709_1565" x1="9.5301" y1="17.4711" x2="9.44423" y2="24.7939" gradientUnits="userSpaceOnUse">
<stop stop-color="#7791AC"/>
<stop offset="1" stop-color="#557189"/>
</linearGradient>
<linearGradient id="paint18_linear_1709_1565" x1="11.503" y1="17.2387" x2="11.3349" y2="29.3462" gradientUnits="userSpaceOnUse">
<stop stop-color="#7791AC"/>
<stop offset="1" stop-color="#557189"/>
</linearGradient>
<linearGradient id="paint19_linear_1709_1565" x1="16.874" y1="2.87129" x2="17.0309" y2="17.4763" gradientUnits="userSpaceOnUse">
<stop stop-color="#EDC378"/>
<stop offset="0.553" stop-color="#EDAC53"/>
<stop offset="1" stop-color="#ED9C3A"/>
</linearGradient>
<linearGradient id="paint20_linear_1709_1565" x1="23.6853" y1="35.6809" x2="13.2105" y2="35.9823" gradientUnits="userSpaceOnUse">
<stop stop-color="#BE5A5A"/>
<stop offset="1" stop-color="#A24646"/>
</linearGradient>
<linearGradient id="paint21_linear_1709_1565" x1="17.5944" y1="34.438" x2="17.2386" y2="38.8764" gradientUnits="userSpaceOnUse">
<stop stop-color="#EDB352"/>
<stop offset="0.532" stop-color="#E8913D"/>
<stop offset="1" stop-color="#E5782E"/>
</linearGradient>
<radialGradient id="paint22_radial_1709_1565" cx="0" cy="0" r="1" gradientUnits="userSpaceOnUse" gradientTransform="translate(9.04545 22.4452) scale(13.1903 13.7147)">
<stop stop-color="#E7EDED"/>
<stop offset="1" stop-color="#BAD0DA"/>
</radialGradient>
<radialGradient id="paint23_radial_1709_1565" cx="0" cy="0" r="1" gradientUnits="userSpaceOnUse" gradientTransform="translate(25.553 30.0224) scale(5.89847 5.85764)">
<stop stop-color="#E7EDED"/>
<stop offset="1" stop-color="#BAD0DA"/>
</radialGradient>
<linearGradient id="paint24_linear_1709_1565" x1="25.9994" y1="32.9989" x2="32" y2="32.9989" gradientUnits="userSpaceOnUse">
<stop stop-color="#7791AC"/>
<stop offset="1" stop-color="#557189"/>
</linearGradient>
<linearGradient id="paint25_linear_1709_1565" x1="30.9998" y1="33.0001" x2="34" y2="33.0001" gradientUnits="userSpaceOnUse">
<stop stop-color="#EDCFC9"/>
<stop offset="1" stop-color="#ECA397"/>
</linearGradient>
<linearGradient id="paint26_linear_1709_1565" x1="22.0237" y1="17.1741" x2="21.8933" y2="28.4727" gradientUnits="userSpaceOnUse">
<stop stop-color="#7791AC"/>
<stop offset="1" stop-color="#557189"/>
</linearGradient>
<radialGradient id="paint27_radial_1709_1565" cx="0" cy="0" r="1" gradientUnits="userSpaceOnUse" gradientTransform="translate(23.5564 15.7892) scale(4.79938 4.81554)">
<stop stop-color="#E7EDED"/>
<stop offset="1" stop-color="#BAD0DA"/>
</radialGradient>
<radialGradient id="paint28_radial_1709_1565" cx="0" cy="0" r="1" gradientUnits="userSpaceOnUse" gradientTransform="translate(9.10785 25.5154) scale(10.0235 10.1317)">
<stop stop-color="#7791AC"/>
<stop offset="1" stop-color="#557189"/>
</radialGradient>
</defs>
</svg>
