<svg width="104" height="40" viewBox="0 0 104 40" fill="none" xmlns="http://www.w3.org/2000/svg">
<path d="M0 12.2606L12.5943 -0.000610352H100C102.209 -0.000610352 104 1.79025 104 3.99939V29.0402L92.8715 39.9994H3.99999C1.79086 39.9994 0 38.2085 0 35.9994V12.2606Z" fill="#EC1A25"/>
<path d="M47.384 26.2394C46.5413 26.2394 45.7813 26.0927 45.104 25.7994C44.432 25.5061 43.8773 25.0874 43.44 24.5434C43.008 23.9941 42.7333 23.3434 42.616 22.5914L44.616 22.2874C44.7867 22.9701 45.136 23.4981 45.664 23.8714C46.1973 24.2447 46.8107 24.4314 47.504 24.4314C47.9147 24.4314 48.3013 24.3674 48.664 24.2394C49.0267 24.1114 49.32 23.9247 49.544 23.6794C49.7733 23.4341 49.888 23.1327 49.888 22.7754C49.888 22.6154 49.8613 22.4687 49.808 22.3354C49.7547 22.1967 49.6747 22.0741 49.568 21.9674C49.4667 21.8607 49.3333 21.7647 49.168 21.6794C49.008 21.5887 48.8213 21.5114 48.608 21.4474L45.632 20.5674C45.376 20.4927 45.0987 20.3941 44.8 20.2714C44.5067 20.1434 44.2267 19.9701 43.96 19.7514C43.6987 19.5274 43.4827 19.2447 43.312 18.9034C43.1467 18.5567 43.064 18.1301 43.064 17.6234C43.064 16.8821 43.2507 16.2607 43.624 15.7594C44.0027 15.2527 44.5093 14.8741 45.144 14.6234C45.784 14.3727 46.4933 14.2501 47.272 14.2554C48.0613 14.2607 48.7653 14.3967 49.384 14.6634C50.0027 14.9247 50.52 15.3061 50.936 15.8074C51.352 16.3087 51.6453 16.9141 51.816 17.6234L49.744 17.9834C49.6587 17.5781 49.4933 17.2341 49.248 16.9514C49.008 16.6634 48.712 16.4447 48.36 16.2954C48.0133 16.1461 47.6427 16.0661 47.248 16.0554C46.864 16.0501 46.5067 16.1087 46.176 16.2314C45.8507 16.3487 45.5867 16.5194 45.384 16.7434C45.1867 16.9674 45.088 17.2287 45.088 17.5274C45.088 17.8101 45.1733 18.0421 45.344 18.2234C45.5147 18.3994 45.7253 18.5407 45.976 18.6474C46.232 18.7487 46.4907 18.8341 46.752 18.9034L48.816 19.4794C49.0987 19.5541 49.416 19.6554 49.768 19.7834C50.12 19.9114 50.4587 20.0901 50.784 20.3194C51.1093 20.5487 51.376 20.8501 51.584 21.2234C51.7973 21.5967 51.904 22.0714 51.904 22.6474C51.904 23.2447 51.7787 23.7701 51.528 24.2234C51.2827 24.6714 50.9493 25.0447 50.528 25.3434C50.1067 25.6421 49.624 25.8661 49.08 26.0154C48.5413 26.1647 47.976 26.2394 47.384 26.2394ZM53.6356 25.9994V14.4794H61.0756V16.2874H55.5636V19.1274H60.1156V20.9354H55.5636V24.1914H61.0756V25.9994H53.6356ZM65.763 25.9994V16.2874H62.035V14.4794H71.419V16.2874H67.691V25.9994H65.763ZM76.9621 26.2394C76.1195 26.2394 75.3595 26.0927 74.6821 25.7994C74.0101 25.5061 73.4555 25.0874 73.0181 24.5434C72.5861 23.9941 72.3115 23.3434 72.1941 22.5914L74.1941 22.2874C74.3648 22.9701 74.7141 23.4981 75.2421 23.8714C75.7755 24.2447 76.3888 24.4314 77.0821 24.4314C77.4928 24.4314 77.8795 24.3674 78.2421 24.2394C78.6048 24.1114 78.8981 23.9247 79.1221 23.6794C79.3515 23.4341 79.4661 23.1327 79.4661 22.7754C79.4661 22.6154 79.4395 22.4687 79.3861 22.3354C79.3328 22.1967 79.2528 22.0741 79.1461 21.9674C79.0448 21.8607 78.9115 21.7647 78.7461 21.6794C78.5861 21.5887 78.3995 21.5114 78.1861 21.4474L75.2101 20.5674C74.9541 20.4927 74.6768 20.3941 74.3781 20.2714C74.0848 20.1434 73.8048 19.9701 73.5381 19.7514C73.2768 19.5274 73.0608 19.2447 72.8901 18.9034C72.7248 18.5567 72.6421 18.1301 72.6421 17.6234C72.6421 16.8821 72.8288 16.2607 73.2021 15.7594C73.5808 15.2527 74.0875 14.8741 74.7221 14.6234C75.3621 14.3727 76.0715 14.2501 76.8501 14.2554C77.6395 14.2607 78.3435 14.3967 78.9621 14.6634C79.5808 14.9247 80.0981 15.3061 80.5141 15.8074C80.9301 16.3087 81.2235 16.9141 81.3941 17.6234L79.3221 17.9834C79.2368 17.5781 79.0715 17.2341 78.8261 16.9514C78.5861 16.6634 78.2901 16.4447 77.9381 16.2954C77.5915 16.1461 77.2208 16.0661 76.8261 16.0554C76.4421 16.0501 76.0848 16.1087 75.7541 16.2314C75.4288 16.3487 75.1648 16.5194 74.9621 16.7434C74.7648 16.9674 74.6661 17.2287 74.6661 17.5274C74.6661 17.8101 74.7515 18.0421 74.9221 18.2234C75.0928 18.3994 75.3035 18.5407 75.5541 18.6474C75.8101 18.7487 76.0688 18.8341 76.3301 18.9034L78.3941 19.4794C78.6768 19.5541 78.9941 19.6554 79.3461 19.7834C79.6981 19.9114 80.0368 20.0901 80.3621 20.3194C80.6875 20.5487 80.9541 20.8501 81.1621 21.2234C81.3755 21.5967 81.4821 22.0714 81.4821 22.6474C81.4821 23.2447 81.3568 23.7701 81.1061 24.2234C80.8608 24.6714 80.5275 25.0447 80.1061 25.3434C79.6848 25.6421 79.2021 25.8661 78.6581 26.0154C78.1195 26.1647 77.5541 26.2394 76.9621 26.2394Z" fill="white"/>
<g clip-path="url(#clip0_1640_109)">
<path d="M33.8774 17.5949C33.724 17.1065 33.4175 16.6805 33.0032 16.3799C32.589 16.0792 32.089 15.9199 31.5771 15.9254H28.3004L27.3051 12.8234C27.1486 12.3351 26.8411 11.9091 26.4269 11.6069C26.0126 11.3047 25.5131 11.1418 25.0004 11.1418C24.4876 11.1418 23.9881 11.3047 23.5739 11.6069C23.1597 11.9091 22.8521 12.3351 22.6956 12.8234L21.7004 15.9254H18.4236C17.9134 15.9261 17.4165 16.088 17.0039 16.388C16.5912 16.688 16.2839 17.1108 16.1259 17.5959C15.9678 18.081 15.9671 18.6036 16.1239 19.0891C16.2806 19.5747 16.5868 19.9982 16.9986 20.2994L19.6656 22.2494L18.6516 25.3896C18.4878 25.8766 18.4857 26.4036 18.6457 26.8919C18.8057 27.3802 19.1193 27.8038 19.5396 28.0994C19.9528 28.4044 20.4534 28.5679 20.967 28.5653C21.4806 28.5627 21.9796 28.3943 22.3896 28.0851L25.0004 26.1636L27.6119 28.0829C28.0243 28.3862 28.5222 28.551 29.0342 28.5534C29.5461 28.5559 30.0456 28.396 30.461 28.0967C30.8763 27.7974 31.186 27.3741 31.3456 26.8877C31.5052 26.4013 31.5064 25.8768 31.3491 25.3896L30.3351 22.2494L33.0051 20.2994C33.4217 20.002 33.7315 19.5785 33.8885 19.0914C34.0456 18.6043 34.0417 18.0795 33.8774 17.5949ZM32.1201 19.0881L29.0121 21.3599C28.8845 21.453 28.7895 21.584 28.7407 21.7344C28.692 21.8847 28.6919 22.0465 28.7406 22.1969L29.9219 25.8494C29.9817 26.0346 29.9812 26.234 29.9204 26.419C29.8597 26.6039 29.7419 26.7649 29.584 26.8786C29.426 26.9924 29.2361 27.0532 29.0414 27.0522C28.8467 27.0512 28.6574 26.9885 28.5006 26.8731L25.4444 24.6231C25.3157 24.5286 25.1601 24.4776 25.0004 24.4776C24.8407 24.4776 24.6851 24.5286 24.5564 24.6231L21.5001 26.8731C21.3435 26.99 21.1536 27.054 20.9581 27.0558C20.7626 27.0576 20.5716 26.997 20.4128 26.883C20.254 26.7689 20.1357 26.6072 20.075 26.4214C20.0143 26.2355 20.0143 26.0352 20.0751 25.8494L21.2601 22.1969C21.3088 22.0465 21.3088 21.8847 21.26 21.7344C21.2113 21.584 21.1163 21.453 20.9886 21.3599L17.8806 19.0881C17.7241 18.9735 17.6078 18.8124 17.5483 18.6277C17.4889 18.4431 17.4893 18.2443 17.5495 18.0599C17.6097 17.8755 17.7267 17.7149 17.8837 17.6009C18.0407 17.4869 18.2296 17.4255 18.4236 17.4254H22.2486C22.4074 17.4254 22.5621 17.3749 22.6904 17.2814C22.8187 17.1879 22.9141 17.056 22.9626 16.9049L24.1251 13.2816C24.1848 13.0962 24.3018 12.9345 24.4592 12.8198C24.6166 12.7051 24.8064 12.6433 25.0011 12.6433C25.1959 12.6433 25.3857 12.7051 25.5431 12.8198C25.7005 12.9345 25.8175 13.0962 25.8771 13.2816L27.0396 16.9049C27.0882 17.056 27.1835 17.1879 27.3119 17.2814C27.4402 17.3749 27.5949 17.4254 27.7536 17.4254H31.5786C31.7726 17.4255 31.9616 17.4869 32.1186 17.6009C32.2756 17.7149 32.3926 17.8755 32.4528 18.0599C32.513 18.2443 32.5134 18.4431 32.4539 18.6277C32.3945 18.8124 32.2782 18.9735 32.1216 19.0881H32.1201Z" fill="white"/>
</g>
<defs>
<clipPath id="clip0_1640_109">
<rect width="18" height="18" fill="white" transform="translate(16 10.9994)"/>
</clipPath>
</defs>
</svg>
