<svg width="40" height="40" viewBox="0 0 40 40" fill="none" xmlns="http://www.w3.org/2000/svg">
<path d="M15.2483 16.5764C15.0846 16.5764 14.9233 16.4996 14.8202 16.3551C14.3947 15.7588 14.2402 14.7469 14.2402 14.2123V13.5704C14.2402 13.2759 14.4763 13.0371 14.7676 13.0371C15.0588 13.0371 15.2949 13.2759 15.2949 13.5704V14.2123C15.2949 14.6784 15.4512 15.4167 15.6755 15.731C15.846 15.9698 15.7927 16.3031 15.5565 16.4755C15.4631 16.5436 15.3552 16.5764 15.2483 16.5764Z" fill="#6CABCA"/>
<path d="M37.5826 10.8753H36.0005L35.0005 8.19751H37.5827C37.8138 8.19751 38.0005 8.387 38.0005 8.62073V10.452C38.0004 10.6858 37.8138 10.8753 37.5826 10.8753Z" fill="#8ABBD5"/>
<path d="M34.0001 8.03384H30.5142V5.28933C30.5142 5.12955 30.6423 5 30.8003 5H32.4888C33.3234 5 34 5.68424 34 6.52826V8.03384H34.0001Z" fill="#8ABBD5"/>
<path d="M10.4869 8.03384H8.00098V5.28933C8.00098 5.12955 8.12909 5 8.28708 5H8.97565C9.81026 5 10.4869 5.68424 10.4869 6.52826V8.03384Z" fill="#8ABBD5"/>
<path d="M4.32392 12.0786L4.26978 12.2755C4.09731 12.9026 3.68916 13.4366 3.13257 13.7636L2.26001 14.2761C2.09914 14.3706 2.00021 14.5446 2.00042 14.7327C2.00063 14.9595 2.14428 15.1607 2.35704 15.2325L2.80668 15.3841C4.05294 15.8042 4.78292 17.1097 4.49647 18.4063L2.45203 27.6584C2.15159 29.0182 2 30.4074 2 31.8008C2 32.637 2.67035 33.3149 3.49721 33.3149H13.6427C14.2716 33.3149 14.7815 32.7992 14.7815 32.1632V30.3882C14.7815 29.9478 14.6059 29.5275 14.2983 29.2157C13.1196 28.021 12.4576 26.4023 12.4576 24.7145V20.9105C12.4576 20.5008 12.7861 20.1686 13.1913 20.1686H18.2604C19.6644 20.1686 20.8025 19.0176 20.8025 17.5979V16.894C20.8025 16.4686 21.1435 16.1236 21.5642 16.1236H34.5954C34.8189 16.1236 35 15.9404 35 15.7144V11.0674L4.32392 12.0786ZM18.6716 14.1011C18.7124 14.1011 18.7455 14.1346 18.7455 14.1758V17.3926C18.7455 17.8088 18.412 18.1461 18.0004 18.1461H13.9296C13.105 18.1461 12.4366 17.4702 12.4366 16.6364V14.1758C12.4366 14.1346 12.4698 14.1011 12.5105 14.1011H18.6716Z" fill="#8ABBD5"/>
<path d="M32.1029 11.163V12.5505C32.1029 13.7149 31.1696 14.6587 30.0182 14.6587H18.7457V17.3928C18.7457 17.8089 18.4122 18.1462 18.0006 18.1462H16.944C16.51 18.4952 15.9607 18.7037 15.3632 18.7037H10.294C9.88883 18.7037 9.56034 19.0359 9.56034 19.4457V23.2531C9.56034 24.9514 10.2616 26.5491 11.4241 27.7746C11.7173 28.0838 11.8842 28.494 11.8842 28.9232C11.8842 30.5396 10.5884 31.8499 8.99012 31.8499H2.00098C2.02657 32.6634 2.68672 33.3149 3.49741 33.3149H13.6429C14.2718 33.3149 14.7817 32.7993 14.7817 32.1633V30.3882C14.7817 29.9478 14.6061 29.5275 14.2985 29.2157C13.1198 28.0211 12.4578 26.4024 12.4578 24.7146V20.9106C12.4578 20.5008 12.7863 20.1687 13.1915 20.1687H18.2606C19.6646 20.1687 20.8027 19.0177 20.8027 17.598V16.894C20.8027 16.4686 21.1438 16.1237 21.5644 16.1237H34.5956C34.8191 16.1237 35.0003 15.9405 35.0003 15.7144V11.0674L32.1029 11.163Z" fill="#6CABCA"/>
<path d="M15.8862 10.0562H24.0001L23.429 7.02246H16.4573L15.8862 10.0562Z" fill="#017297"/>
<path d="M35.8818 7.02246H23.5451C23.4811 7.02246 23.4291 7.07501 23.4291 7.13978V8.37983C23.4291 9.12478 22.832 9.72867 22.0953 9.72867H17.7912C17.0545 9.72867 16.4574 9.12478 16.4574 8.37983V7.13978C16.4574 7.07501 16.4054 7.02246 16.3413 7.02246H6.07402C6.03014 7.02246 5.99119 7.05083 5.97734 7.09293L5.43918 8.72568C5.14718 9.61156 4.79337 10.4754 4.38036 11.3107L4.07437 11.9295C4.04048 11.9981 4.08977 12.0787 4.16556 12.0787H35.8818C35.947 12.0787 36 12.0252 36 11.9592V7.14192C36 7.07593 35.947 7.02246 35.8818 7.02246Z" fill="#BAD6E5"/>
<path d="M35.8818 7.02246H33.1025V7.85068C33.1025 9.37663 31.8793 10.6137 30.3703 10.6137H4.70823C4.60346 10.8481 4.49413 11.0805 4.38036 11.3107L4.07437 11.9296C4.04048 11.9982 4.08977 12.0788 4.16556 12.0788H35.8818C35.947 12.0788 36 12.0252 36 11.9593V7.14192C36 7.07593 35.947 7.02246 35.8818 7.02246Z" fill="#B4D2E2"/>
<path d="M10.4579 24.7147L10.4395 15.4265L10.4013 15.445C9.47985 15.8916 8.46962 16.1193 7.44779 16.1107L7.05383 16.1073L4.40416 28.0996C4.20159 29.0164 4.07447 29.9517 4.02448 30.8905C4.01288 31.1089 4.18542 31.2926 4.40177 31.2926H12.2723C12.5537 31.2926 12.7818 31.0619 12.7818 30.7773V30.7448C12.7818 30.6135 12.7311 30.4882 12.6431 30.3915C11.2313 28.8388 10.4579 26.8364 10.4579 24.7147Z" fill="#017297"/>
<path d="M10.4576 24.7148L10.4457 18.7039H10.2938C9.88855 18.7039 9.56006 19.0361 9.56006 19.4458V23.2533C9.56006 24.5953 9.99796 25.8745 10.7553 26.9569C10.559 26.2356 10.4576 25.483 10.4576 24.7148Z" fill="#025F80"/>
<path d="M11.8502 29.3733C11.7301 30.1605 11.2997 30.8442 10.6895 31.2926H12.2721C12.5536 31.2926 12.7817 31.0619 12.7817 30.7773V30.7448C12.7817 30.6135 12.731 30.4882 12.643 30.3915C12.351 30.0703 12.0864 29.73 11.8502 29.3733Z" fill="#025F80"/>
<path d="M8.49934 14.1011H7.00049V12.0786H10.0005V12.583C10.0005 13.4214 9.3284 14.1011 8.49934 14.1011Z" fill="#BAD6E5"/>
<path d="M7.00096 14.1011C7.55324 14.1011 8.00095 13.6484 8.00095 13.0899C8.00095 12.5314 7.55324 12.0786 7.00096 12.0786C6.44869 12.0786 6.00098 12.5314 6.00098 13.0899C6.00098 13.6484 6.44869 14.1011 7.00096 14.1011Z" fill="#D8E8F0"/>
<path d="M29 14.6344H27C26.7087 14.6344 26.4727 14.3957 26.4727 14.1012C26.4727 13.8066 26.7087 13.5679 27 13.5679H29C29.2913 13.5679 29.5273 13.8066 29.5273 14.1012C29.5273 14.3957 29.2912 14.6344 29 14.6344Z" fill="#6CABCA"/>
<path d="M33.0005 14.6344H31.0005C30.7092 14.6344 30.4731 14.3957 30.4731 14.1012C30.4731 13.8066 30.7092 13.5679 31.0005 13.5679H33.0005C33.2918 13.5679 33.5278 13.8066 33.5278 14.1012C33.5278 14.3957 33.2917 14.6344 33.0005 14.6344Z" fill="#6CABCA"/>
<path d="M33 13.5679H31.844C31.5974 14.0196 31.1916 14.3701 30.7031 14.542C30.7876 14.6003 30.8899 14.6344 30.9999 14.6344H32.9999C33.2912 14.6344 33.5272 14.3957 33.5272 14.1012C33.5272 13.8066 33.2912 13.5679 33 13.5679Z" fill="#3692BC"/>
<path d="M8.00064 10.5898C7.94101 10.5898 7.8804 10.5795 7.82106 10.5578C7.54719 10.4575 7.40565 10.1517 7.50479 9.87478L7.86697 8.86352C7.96618 8.58657 8.2686 8.44351 8.54239 8.54369C8.81626 8.64402 8.9578 8.94978 8.85866 9.22673L8.49648 10.238C8.41878 10.455 8.21636 10.5898 8.00064 10.5898Z" fill="#B4D2E2"/>
<path d="M10.0006 10.5896C9.94097 10.5896 9.88036 10.5793 9.82109 10.5576C9.54722 10.4573 9.40561 10.1516 9.50482 9.87469L9.867 8.86336C9.96621 8.58648 10.2685 8.44313 10.5424 8.54353C10.8163 8.64386 10.9578 8.94961 10.8587 9.22656L10.4965 10.2378C10.4187 10.4548 10.2163 10.5896 10.0006 10.5896Z" fill="#B4D2E2"/>
<path d="M12.0001 10.5896C11.9405 10.5896 11.8799 10.5793 11.8206 10.5576C11.5467 10.4573 11.4051 10.1516 11.5043 9.87469L11.8665 8.86336C11.9657 8.58648 12.268 8.44313 12.5419 8.54353C12.8158 8.64386 12.9573 8.94961 12.8582 9.22656L12.496 10.2378C12.4183 10.4548 12.2158 10.5896 12.0001 10.5896Z" fill="#B4D2E2"/>
<path d="M10.4401 15.936L6.12742 20.298L5.69824 22.2407L10.443 17.4415L10.4401 15.936Z" fill="#025F80"/>
<path d="M10.4493 20.4697L10.4463 18.9644L5.26456 24.2046L4.83545 26.1469L10.4493 20.4697Z" fill="#025F80"/>
<path d="M10.4627 25.0151L4.27637 31.2712C4.31546 31.2851 4.35751 31.2926 4.40138 31.2926H5.74671L10.6174 26.367C10.5305 25.9251 10.4785 25.4733 10.4627 25.0151Z" fill="#025F80"/>
<path d="M11.3999 28.6088C11.2243 28.2703 11.0722 27.9203 10.9445 27.561L7.25537 31.2926H8.74674L11.3999 28.6088Z" fill="#025F80"/>
<path d="M10.4549 23.4978L10.4519 21.9924L4.40094 28.1116C4.26952 28.7084 4.1701 29.3129 4.10303 29.9211L10.4549 23.4978Z" fill="#025F80"/>
<path d="M10.4527 21.9924L9.56055 22.8946V23.2533C9.56055 23.6111 9.5917 23.9645 9.65174 24.3108L10.4557 23.4978L10.4527 21.9924Z" fill="#024C67"/>
<path d="M10.4496 20.47L10.4467 18.9646L9.56055 19.8607V21.3691L10.4496 20.47Z" fill="#024C67"/>
<path d="M10.6174 26.3671C10.5306 25.9251 10.4786 25.4733 10.4627 25.0151L9.98047 25.5028C10.1146 25.8529 10.2789 26.1915 10.4708 26.5154L10.6174 26.3671Z" fill="#024C67"/>
<path d="M35.0001 25.1974H34.5078C34.2503 21.7031 31.4829 18.9046 28.0276 18.6441V18.1463C28.0276 17.8518 27.7916 17.613 27.5003 17.613C27.209 17.613 26.973 17.8518 26.973 18.1463V18.6441C23.5176 18.9046 20.7503 21.7031 20.4927 25.1974H20.0005C19.7092 25.1974 19.4731 25.4361 19.4731 25.7307C19.4731 26.0252 19.7092 26.2639 20.0005 26.2639H20.4927C20.7503 29.7583 23.5177 32.5568 26.973 32.8172V33.315C26.973 33.6095 27.209 33.8483 27.5003 33.8483C27.7916 33.8483 28.0276 33.6095 28.0276 33.315V32.8172C31.483 32.5568 34.2503 29.7582 34.5078 26.2639H35.0001C35.2914 26.2639 35.5274 26.0252 35.5274 25.7307C35.5274 25.4361 35.2913 25.1974 35.0001 25.1974ZM33.4497 25.1974H31.4931C31.2567 23.3773 29.8274 21.9319 28.0276 21.6928V19.7142C30.9011 19.9696 33.1972 22.2916 33.4497 25.1974ZM26.9794 25.1977C26.9733 25.1975 26.9673 25.1974 26.9612 25.1974H24.5745C24.7933 23.9664 25.7557 22.9932 26.973 22.7719V25.1144C26.973 25.1428 26.9751 25.1706 26.9794 25.1977ZM26.9612 26.2639C26.9673 26.2639 26.9734 26.2638 26.9794 26.2636C26.9751 26.2907 26.973 26.3185 26.973 26.3469V28.6894C25.7557 28.4681 24.7933 27.4949 24.5745 26.2639H26.9612V26.2639ZM28.0212 26.2639H30.426C30.2072 27.4949 29.2448 28.4681 28.0276 28.6894V26.347C28.0276 26.3188 28.0254 26.291 28.0212 26.2639ZM28.0212 25.1974C28.0254 25.1704 28.0276 25.1426 28.0276 25.1144V22.7719C29.2448 22.9932 30.2072 23.9664 30.426 25.1974H28.0212ZM26.973 19.7142V21.6928C25.1732 21.9318 23.7438 23.3773 23.5074 25.1974H21.5508C21.8034 22.2916 24.0995 19.9696 26.973 19.7142ZM21.5508 26.2639H23.5074C23.7438 28.084 25.1732 29.5294 26.973 29.7686V31.7472C24.0995 31.4918 21.8034 29.1698 21.5508 26.2639ZM28.0276 31.7472V29.7686C29.8274 29.5295 31.2567 28.084 31.4931 26.2639H33.4497C33.1972 29.1698 30.9011 31.4918 28.0276 31.7472Z" fill="#F2FBFF"/>
<path d="M27.5005 27.2474C28.3289 27.2474 29.0004 26.5683 29.0004 25.7305C29.0004 24.8928 28.3289 24.2136 27.5005 24.2136C26.6721 24.2136 26.0005 24.8928 26.0005 25.7305C26.0005 26.5683 26.6721 27.2474 27.5005 27.2474Z" fill="#FD4755"/>
</svg>
