<svg width="40" height="40" viewBox="0 0 40 40" fill="none" xmlns="http://www.w3.org/2000/svg">
<path d="M28.9999 17.0119V20H11V17.0119V11.1518C11 9.96366 11.892 9 12.9917 9H27.0083C28.108 9 29 9.96366 29 11.1518V17.0119H28.9999Z" fill="#358DCD"/>
<path d="M15.0112 11.1518C15.0112 9.96366 15.9019 9 17 9H12.9888C11.8907 9 11 9.96366 11 11.1518V17.0119V20H15.0112V17.0119V11.1518Z" fill="#366FCC"/>
<path d="M27 16.8344V20H13V16.8344V11.175C13 11.0784 13.071 11 13.1586 11H16.9585C17.1089 11 17.2424 11.1066 17.2893 11.2645L17.3778 11.5622C17.4464 11.7916 17.64 11.9461 17.8586 11.9461H22.1414C22.3599 11.9461 22.5535 11.7916 22.6221 11.5622L22.7106 11.2645C22.7576 11.1066 22.8911 11 23.0415 11H26.8414C26.9289 11 26.9999 11.0784 26.9999 11.175L27 16.8344Z" fill="#82DBBA"/>
<path d="M14.825 19.0163V14.5768C14.825 13.8063 15.3909 13.1818 16.0888 13.1818H27V11.175C27 11.0784 26.929 11 26.8414 11H23.0415C22.8911 11 22.7576 11.1066 22.7107 11.2645L22.6222 11.5622C22.5536 11.7916 22.36 11.9461 22.1414 11.9461H17.8586C17.64 11.9461 17.4464 11.7916 17.3778 11.5622L17.2893 11.2645C17.2424 11.1066 17.1089 11 16.9585 11H13.1586C13.071 11 13 11.0784 13 11.175V16.8344V20H14.825V19.0163H14.825Z" fill="#38C689"/>
<path d="M32.9382 7.48655C29.6662 4.10326 25.0785 2 20 2C14.9215 2 10.3338 4.10326 7.0618 7.48655C3.92797 10.7259 2 15.1382 2 20C2 24.8618 3.92797 29.2741 7.0618 32.5134C10.3338 35.8967 14.9215 38 20 38C25.0785 38 29.6662 35.8967 32.9382 32.5134C36.072 29.2741 38 24.8618 38 20C38 15.1382 36.072 10.7259 32.9382 7.48655ZM17.2902 32.3825C17.2902 33.7418 15.9316 34.6807 14.6596 34.2014C12.5236 33.3978 10.6167 32.1265 9.06402 30.5112C7.8429 29.2422 6.84144 27.76 6.12003 26.1272C5.44074 24.5905 6.58184 22.8647 8.26182 22.8647H11.3476C12.92 22.8647 14.4473 23.4516 15.5738 24.549C15.7265 24.6974 15.8866 24.8385 16.0539 24.9716C16.8386 25.5956 17.2902 26.5469 17.2902 27.549V32.3825H17.2902ZM15.7571 15.2793C14.6698 16.2582 13.2742 16.8255 11.8116 16.8255H8.40434C6.68436 16.8255 5.5607 15.032 6.30031 13.4793C7.00505 12.0015 7.94176 10.6553 9.06394 9.48877C11.8233 6.61742 15.7026 4.83057 20 4.83057C24.2974 4.83057 28.1767 6.61749 30.936 9.48877C32.0582 10.6553 32.9949 12.0015 33.6996 13.4793C34.4392 15.032 33.3156 16.8255 31.5956 16.8255H28.1883C26.7257 16.8255 25.3301 16.2582 24.2429 15.2793C23.1186 14.2676 21.6313 13.6516 20 13.6516C18.3687 13.6516 16.8814 14.2676 15.7571 15.2793ZM30.936 30.5113C29.3833 32.1266 27.4763 33.3978 25.3404 34.2015C24.0684 34.6808 22.7098 33.7419 22.7098 32.3826V27.5492C22.7098 26.547 23.1615 25.5958 23.9462 24.9717C23.9571 24.963 23.968 24.9543 23.9789 24.9456C25.6538 23.5958 27.7425 22.8648 29.8938 22.8648H31.7382C33.4182 22.8648 34.5593 24.5906 33.88 26.1274C33.1586 27.76 32.1571 29.2422 30.936 30.5113Z" fill="#BDD2DB"/>
<path d="M29 20C29.5523 20 30 19.5523 30 19C30 18.4477 29.5523 18 29 18C28.4477 18 28 18.4477 28 19C28 19.5523 28.4477 20 29 20Z" fill="#E0D3F2"/>
<path d="M12.5981 19.2857H12.1162C11.8942 19.2857 11.7143 19.1059 11.7143 18.8838V18.4019C11.7143 18.1799 11.5344 18 11.3124 18H10.6876C10.4657 18 10.2857 18.1799 10.2857 18.4019V18.8838C10.2857 19.1058 10.1059 19.2857 9.88385 19.2857H9.40188C9.17994 19.2857 9 19.4656 9 19.6876V20.3124C9 20.5343 9.17985 20.7143 9.40188 20.7143H9.88385C10.1058 20.7143 10.2857 20.8941 10.2857 21.1162V21.5981C10.2857 21.8201 10.4656 22 10.6876 22H11.3124C11.5343 22 11.7143 21.8201 11.7143 21.5981V21.1162C11.7143 20.8942 11.8941 20.7143 12.1162 20.7143H12.5981C12.8201 20.7143 13 20.5344 13 20.3124V19.6876C13 19.4657 12.8201 19.2857 12.5981 19.2857Z" fill="#E0D3F2"/>
<path d="M20 24C22.2091 24 24 22.2091 24 20C24 17.7909 22.2091 16 20 16C17.7909 16 16 17.7909 16 20C16 22.2091 17.7909 24 20 24Z" fill="#E8DFFB"/>
<path d="M19.159 20C19.159 18.2947 20.339 17.0754 22 16.5C21 16 20.5567 16 20 16C17.5588 16 16 17.791 16 20C16 22.209 17.5588 24 20 24C21 24 21.5093 23.6699 22 23.5C20.339 22.9246 19.159 21.7053 19.159 20Z" fill="#E8DFFB"/>
<path d="M9.01179 30.4125C10.5719 32.0491 12.488 33.3371 14.6342 34.1514C15.9123 34.637 17.2773 33.6857 17.2773 32.3085V28H22.7228V32.3085C22.7228 33.6857 24.0879 34.637 25.3659 34.1514C27.5121 33.3372 29.4281 32.0491 30.9883 30.4125L33 32.441C29.7125 35.869 25.1029 38 20.0001 38C14.8973 38 10.2876 35.869 7 32.441L9.01179 30.4125Z" fill="#FE4583"/>
<path d="M12.5981 19.2857H12.1162C11.8942 19.2857 11.7143 19.1059 11.7143 18.8838V18.4019C11.7143 18.1799 11.5344 18 11.3124 18H10.6876C10.4657 18 10.2857 18.1799 10.2857 18.4019V18.8838C10.2857 19.1058 10.1059 19.2857 9.88385 19.2857H9.40188C9.17994 19.2857 9 19.4656 9 19.6876V20.3124C9 20.5343 9.17985 20.7143 9.40188 20.7143H9.88385C10.1058 20.7143 10.2857 20.8941 10.2857 21.1162V21.5981C10.2857 21.8201 10.4656 22 10.6876 22H11.3124C11.5343 22 11.7143 21.8201 11.7143 21.5981V21.1162C11.7143 20.8942 11.8941 20.7143 12.1162 20.7143H12.5981C12.8201 20.7143 13 20.5344 13 20.3124V19.6876C13 19.4657 12.82 19.2857 12.5981 19.2857Z" fill="#4F4F74"/>
<path d="M20 22C21.1046 22 22 21.1046 22 20C22 18.8954 21.1046 18 20 18C18.8954 18 18 18.8954 18 20C18 21.1046 18.8954 22 20 22Z" fill="#4F4F74"/>
<path d="M28 22C28.5523 22 29 21.5523 29 21C29 20.4477 28.5523 20 28 20C27.4477 20 27 20.4477 27 21C27 21.5523 27.4477 22 28 22Z" fill="#FE4583"/>
<path d="M28 20C27.5 20 27 20.4556 27 20.9994C27 21.552 27.5 22 28.1253 22C27.2157 21.5886 27 20.5 28 20Z" fill="#EA2D88"/>
<path d="M29 20C29.5523 20 30 19.5523 30 19C30 18.4477 29.5523 18 29 18C28.4477 18 28 18.4477 28 19C28 19.5523 28.4477 20 29 20Z" fill="#82DBBA"/>
<path d="M29 18C28.5 18 28 18.4556 28 18.9994C28 19.552 28.5037 20 29.1253 20C28.2157 19.5886 28 18.5 29 18Z" fill="#5BCE95"/>
<path d="M7 7.5C10.2876 4.33752 14.5 2 20 2C25.5 2 29.7124 4.33752 33 7.5L31 9.5C28.2275 6.81612 24.318 5 20 5C15.682 5 11.7725 6.81612 9 9.5L7 7.5Z" fill="#FE4583"/>
</svg>
