<svg width="40" height="40" viewBox="0 0 40 40" fill="none" xmlns="http://www.w3.org/2000/svg">
<path d="M25.4543 20.9092H22.7271V25.9092H25.4543V20.9092Z" fill="#FECF05"/>
<path d="M17.4406 16.5345C17.4303 16.5345 17.4201 16.5342 17.4098 16.5332C15.3949 16.3571 13.5064 15.1435 12.092 13.116C10.5788 10.9474 9.74561 8.07187 9.74561 5.01939C9.74561 4.76977 9.94837 4.56689 10.1977 4.56689H14.4823C14.6656 4.56689 14.8183 4.70759 14.8335 4.89025C14.8775 5.41976 14.9325 5.95077 14.9969 6.4685C15.0094 6.569 14.9782 6.66966 14.9113 6.74563C14.8445 6.82131 14.7482 6.86463 14.6472 6.86463H12.6047C12.4922 6.86463 12.386 6.91383 12.3133 6.99965C12.2408 7.08547 12.2095 7.1985 12.2279 7.30929C12.5413 9.19867 13.1947 10.9949 13.9754 12.1139C14.8514 13.3697 15.8063 14.2068 16.737 14.5353C16.8271 14.5671 16.9007 14.634 16.9404 14.7209C17.0613 14.9852 17.1857 15.1494 17.3176 15.3231C17.4378 15.4815 17.562 15.645 17.6901 15.8969C17.7111 15.9378 17.7323 15.9791 17.7535 16.02C17.8125 16.1342 17.8048 16.2713 17.7333 16.3783C17.6676 16.4765 17.5574 16.5345 17.4406 16.5345Z" fill="#F8B816"/>
<path d="M31.3963 16.5345C31.2794 16.5345 31.1692 16.4765 31.1034 16.3783C31.032 16.2713 31.0244 16.134 31.0834 16.0197C31.1047 15.9788 31.1257 15.9377 31.1467 15.8967C31.2746 15.6453 31.399 15.4815 31.5192 15.3231C31.6512 15.1494 31.7756 14.9852 31.8966 14.7209C31.9363 14.634 32.0096 14.567 32.0998 14.5353C33.0303 14.2069 33.9854 13.3697 34.8614 12.1139C35.6423 10.9947 36.2956 9.19859 36.609 7.30944C36.6273 7.1985 36.5963 7.08547 36.5236 6.99965C36.4509 6.91398 36.3446 6.86463 36.2322 6.86463H34.1895C34.0885 6.86463 33.9922 6.82131 33.9253 6.74563C33.8585 6.66966 33.8273 6.569 33.8397 6.4685C33.9042 5.95092 33.9593 5.41976 34.0033 4.89025C34.0184 4.70759 34.1712 4.56689 34.3544 4.56689H38.6391C38.8884 4.56689 39.0912 4.76984 39.0912 5.01939C39.0912 8.07209 38.258 10.9476 36.7447 13.116C35.3305 15.1435 33.442 16.3571 31.427 16.5332C31.4166 16.5342 31.4065 16.5345 31.3963 16.5345Z" fill="#F8B816"/>
<path d="M34.3933 1.9797C34.2931 1.87643 34.1561 1.81812 34.0129 1.81812H15.0778C14.9348 1.81812 14.7978 1.87636 14.6976 1.9797C14.5972 2.08342 14.5424 2.22331 14.5455 2.36799C14.6529 7.49986 15.705 12.2984 17.5084 15.8796C18.7279 18.3012 20.216 20.0121 21.8446 20.909H27.2462C28.8749 20.0121 30.3629 18.3012 31.5824 15.8796C33.3857 12.2984 34.4378 7.49986 34.5453 2.36799C34.5484 2.22331 34.4936 2.08349 34.3933 1.9797Z" fill="#FECF05"/>
<path opacity="0.1" d="M23.1818 20.909C21.6153 20.0129 20.1839 18.3026 19.0111 15.8796C17.2779 12.2984 16.2667 7.49986 16.1634 2.36799C16.1604 2.22331 16.2131 2.08349 16.3095 1.9797C16.4058 1.87643 16.5376 1.81812 16.675 1.81812H15.0571C14.9196 1.81812 14.788 1.87636 14.6916 1.9797C14.5952 2.08342 14.5425 2.22331 14.5455 2.36799C14.6487 7.49986 15.66 12.2984 17.3932 15.8796C18.5653 18.3012 19.9956 20.0121 21.5609 20.909H23.1818Z" fill="black"/>
<path d="M27.7274 28.1819V26.3597C27.7274 26.1108 27.5067 25.9092 27.2345 25.9092H21.4021C21.1298 25.9092 20.9092 26.1108 20.9092 26.3597V28.1819H27.7274Z" fill="#F8B816"/>
<path d="M29.9999 35.0001V28.5663C29.9999 28.3548 29.8332 28.1819 29.6294 28.1819H19.4613C19.2575 28.1819 19.0908 28.3548 19.0908 28.5663V35.0001H29.9999Z" fill="#A67C52"/>
<path d="M32.2729 36.4639C32.2729 36.6588 32.1034 36.8182 31.8962 36.8182H17.1952C16.9879 36.8182 16.8184 36.6588 16.8184 36.4639V35.3542C16.8184 35.1594 16.9879 35 17.1952 35H31.8961C32.1033 35 32.2728 35.1594 32.2728 35.3542V36.4639H32.2729Z" fill="#8C6239"/>
<path d="M27.7273 32.9416C27.7273 33.0737 27.6221 33.1818 27.4936 33.1818H20.6884C20.5598 33.1818 20.4546 33.0737 20.4546 32.9416V30.2401C20.4546 30.108 20.5598 30 20.6884 30H27.4936C27.6222 30 27.7273 30.108 27.7273 30.2401V32.9416Z" fill="#FECF05"/>
<path d="M21.3242 20.959V23.0985C21.3242 23.3087 21.4961 23.4806 21.7062 23.4806H27.1298C27.3398 23.4806 27.5117 23.3087 27.5117 23.0985V20.959H21.3242Z" fill="#F8B816"/>
<path d="M20.0899 24.9477L21.5768 20.4162C20.2771 18.5922 18.4445 17.1677 16.3037 16.3636L12.2688 19.2666L8.2339 16.3635C6.11181 17.1608 4.29284 18.568 2.99537 20.3694L4.52715 25.0377L0.90918 27.6406C1.04771 29.7776 1.7866 31.7527 2.962 33.4015H7.82382L9.26147 37.7834C10.2195 38.0426 11.2276 38.1817 12.2687 38.1817C13.3224 38.1817 14.3425 38.0392 15.3111 37.774L16.8049 33.2212H21.7023C22.8296 31.5728 23.5261 29.6127 23.6365 27.4991L20.0899 24.9477Z" fill="#E9EAEC"/>
<path d="M20.6371 25.2243L23.6209 27.387C23.6312 27.1897 23.6365 26.9909 23.6365 26.7911C23.6365 24.3602 22.8692 22.1084 21.5637 20.2626L20.2921 24.1668L15.9922 25.4378L12.8303 23.1459V18.7032L16.3004 16.1881C15.0484 15.7144 13.6911 15.4546 12.2728 15.4546C10.8545 15.4546 9.4972 15.7145 8.24527 16.1881L11.7152 18.7032V23.1459L8.53348 25.4521L4.36376 24.3523L3.01608 20.2143C1.68958 22.0692 0.90918 24.3392 0.90918 26.7911C0.90918 27.0391 0.9181 27.2846 0.933786 27.5285L3.8984 25.3797L8.22862 26.5218L9.46405 30.3151L7.23798 33.321H2.983C4.4833 35.4416 6.69479 37.0251 9.27114 37.7273L8.07675 34.0599L10.4609 30.8406H14.0692L16.5751 33.8317L15.3094 37.718C17.9438 36.9908 20.1941 35.3417 21.6886 33.1398H17.4483L15.0817 30.315L16.3244 26.4993L20.6371 25.2243Z" fill="#7A8C98"/>
<path d="M32.5473 24.6045C32.452 24.6045 32.3662 24.547 32.3296 24.4589C31.8374 23.2697 31.4747 22.9066 30.2866 22.4137C30.1985 22.3774 30.1411 22.2912 30.1411 22.196C30.1411 22.1006 30.1986 22.0146 30.2866 21.978C31.4748 21.4853 31.8374 21.1222 32.3296 19.933C32.3662 19.8448 32.452 19.7874 32.5473 19.7874C32.6426 19.7874 32.7286 19.8448 32.765 19.933C33.2572 21.1222 33.6199 21.4853 34.8081 21.978C34.8962 22.0146 34.9536 22.1005 34.9536 22.196C34.9536 22.2912 34.8962 22.3774 34.8081 22.4137C33.62 22.9066 33.2572 23.2697 32.765 24.4589C32.7286 24.547 32.6426 24.6045 32.5473 24.6045Z" fill="#F7931E"/>
<path d="M6.11994 8.95092C6.04291 8.95092 5.97356 8.90447 5.94395 8.83319C5.54595 7.87169 5.25273 7.578 4.29199 7.17972C4.22078 7.15019 4.17432 7.08063 4.17432 7.00361C4.17432 6.92644 4.22078 6.85688 4.29199 6.82743C5.25265 6.42906 5.54595 6.13553 5.94387 5.17388C5.97341 5.10253 6.04283 5.05615 6.11987 5.05615C6.1969 5.05615 6.26641 5.10253 6.29586 5.17388C6.69379 6.13553 6.98716 6.42906 7.94774 6.82743C8.01896 6.85695 8.06542 6.92644 8.06542 7.00361C8.06542 7.08063 8.01896 7.15026 7.94774 7.17972C6.98709 7.57808 6.69379 7.87169 6.29586 8.83326C6.26648 8.90447 6.19698 8.95092 6.11994 8.95092Z" fill="#F7931E"/>
<path opacity="0.1" d="M2.79721 26.8182C2.79721 20.861 7.367 15.9754 13.1819 15.4941C12.8706 15.4683 12.5558 15.4546 12.2379 15.4546C5.98121 15.4546 0.90918 20.5421 0.90918 26.8182C0.90918 33.094 5.98121 38.1819 12.2379 38.1819C12.5558 38.1819 12.8706 38.168 13.1819 38.1423C7.367 37.661 2.79721 32.7751 2.79721 26.8182Z" fill="black"/>
</svg>
