<svg width="30" height="30" viewBox="0 0 30 30" fill="none" xmlns="http://www.w3.org/2000/svg">
<g clip-path="url(#clip0_1728_70)">
<path d="M1.34161 17.0049C1.63649 17.4432 2.08347 17.7453 2.60313 17.8598C2.2679 18.491 2.28157 19.2787 2.70858 19.9133C3.01236 20.3652 3.47062 20.657 3.96945 20.7674C3.88049 20.9345 3.81475 21.1148 3.77547 21.3049C3.66655 21.8336 3.77287 22.3724 4.07556 22.822C4.37043 23.2606 4.81741 23.5627 5.33708 23.677C5.00184 24.3082 5.01551 25.0958 5.44253 25.7307C6.06678 26.6589 7.34218 26.9142 8.28518 26.2994L10.327 24.9681C11.4153 25.5116 12.5729 25.8971 13.7743 26.1167C14.154 26.6843 14.5956 27.212 15.0899 27.6837L15.9346 28.4897C16.5532 29.0801 17.5233 29.1688 18.2415 28.7003C19.0912 28.1464 19.3247 27.015 18.762 26.1785C18.7399 26.1454 18.7182 26.112 18.6967 26.0787C21.4656 25.5271 23.9891 24.0805 25.8568 21.9607C27.8836 19.6602 29 16.7139 29 13.6647C29 13.0802 28.9594 12.4946 28.8791 11.9247C28.2605 7.49393 25.2627 3.67563 21.0559 1.95959C19.4959 1.323 17.8405 0.999999 16.1366 0.999999C13.438 0.999999 10.8549 1.81369 8.6662 3.35284C6.52504 4.85889 4.92308 6.93723 4.03325 9.36313C3.95014 9.58915 4.06927 9.83887 4.29883 9.92047C4.52861 10.0021 4.78204 9.88501 4.86493 9.65879C5.69357 7.39972 7.18574 5.46429 9.18044 4.06143C11.2181 2.62823 13.6235 1.87073 16.1366 1.87073C17.4359 1.87073 18.7045 2.0726 19.9188 2.47079L16.3208 4.81659C16.3206 4.8168 16.3204 4.8168 16.3201 4.81702C16.3199 4.81702 16.3199 4.81723 16.3197 4.81744L13.3295 6.76697L13.3293 6.76697C13.0609 6.94214 12.8776 7.2096 12.8133 7.52042C12.7491 7.83124 12.8116 8.14826 12.9895 8.41251L13.029 8.47147L12.4481 8.85022C12.0337 9.12046 11.5353 9.22641 11.0445 9.14887C10.3339 9.0365 9.61223 9.19031 9.01249 9.58146L4.19468 12.7226C4.22766 12.3111 4.28191 11.902 4.35763 11.4998C4.40233 11.2633 4.24372 11.036 4.00352 10.9922C3.9764 10.9871 3.94906 10.9847 3.92237 10.9847C3.71342 10.9847 3.52768 11.1313 3.48819 11.3409C3.3656 11.9901 3.29508 12.6551 3.27685 13.3209L1.91921 14.2062C1.46247 14.504 1.15067 14.9592 1.04175 15.4877C0.932609 16.0164 1.03915 16.5552 1.34161 17.0049ZM11.1855 24.4084L12.5367 23.5274L12.8027 24.233C12.9138 24.5274 13.0412 24.816 13.1822 25.0984C12.4968 24.9273 11.8293 24.6966 11.1855 24.4084ZM25.1888 21.3901C23.3937 23.4274 20.9485 24.797 18.2736 25.2719C17.8444 24.2482 17.7416 23.1044 17.9981 22.0143L19.0762 17.4285C19.2457 17.6066 19.4657 17.7295 19.7135 17.779C20.0294 17.8425 20.3512 17.7807 20.6196 17.6056L23.6736 15.6146C23.6738 15.6146 23.6738 15.6146 23.674 15.6144C23.674 15.6144 23.6742 15.6144 23.6742 15.6142L28.0789 12.7424C28.103 13.0483 28.1156 13.3566 28.1156 13.6647C28.1156 16.5041 27.076 19.2479 25.1888 21.3901ZM13.6799 7.69409C13.6971 7.61121 13.7461 7.53964 13.8179 7.49286L13.8177 7.49286L16.444 5.78067L21.3185 12.9377C21.4545 13.1374 21.7292 13.1906 21.9321 13.0567C22.1348 12.9227 22.189 12.6525 22.053 12.4528L17.1816 5.29981L20.9307 2.85532C24.6563 4.45963 27.3223 7.84769 27.9633 11.7901L23.5534 14.6559L23.0459 13.9103C22.9604 13.7851 22.8206 13.7174 22.6781 13.7174C22.5935 13.7174 22.5078 13.7411 22.4322 13.7911C22.2294 13.9251 22.1751 14.1955 22.3112 14.3952L22.8152 15.1354L20.1312 16.8797C20.0598 16.9265 19.9741 16.9427 19.8899 16.9258C19.8057 16.9089 19.733 16.8607 19.6855 16.7902L13.7268 7.93164C13.6795 7.86136 13.6628 7.77698 13.6799 7.69409ZM1.90836 15.6612C1.97042 15.3604 2.14769 15.1015 2.40764 14.9321L3.95969 13.9201C3.96012 13.9199 3.96056 13.9195 3.96121 13.9193L9.50092 10.3073C9.91535 10.0371 10.4137 9.93094 10.9046 10.0087C11.6149 10.1209 12.3366 9.96726 12.9366 9.57612L13.5174 9.19736L18.3977 16.4526L17.1362 21.8178C16.8114 23.1999 16.9826 24.6558 17.6014 25.9241C17.6071 25.9373 17.6131 25.9501 17.6201 25.9627C17.739 26.2024 17.8739 26.435 18.0247 26.6593C18.3181 27.0956 18.1964 27.6854 17.7531 27.9744C17.3786 28.2186 16.8726 28.1724 16.5501 27.8646L15.7054 27.0584C14.7917 26.1862 14.0746 25.1044 13.632 23.9299L13.172 22.7099C13.1711 22.7075 13.1703 22.7056 13.1694 22.7035C13.1683 22.7007 13.167 22.6977 13.1659 22.6949C13.1627 22.6875 13.1596 22.6806 13.1564 22.6748C13.1475 22.6565 13.1377 22.6383 13.126 22.621C12.991 22.4204 12.7168 22.3655 12.5132 22.4984L7.79676 25.5733C7.26038 25.923 6.53502 25.7779 6.17983 25.2499C5.82463 24.7218 5.97196 24.0076 6.50833 23.6579L6.91777 23.3909C6.91777 23.3909 6.91799 23.3909 6.91821 23.3907L7.83147 22.7951C7.83278 22.7943 7.83364 22.7934 7.83494 22.7928C7.84015 22.7891 7.84514 22.7857 7.84926 22.7823C8.03804 22.6458 8.08686 22.3862 7.95602 22.1918C7.82127 21.9913 7.5468 21.9364 7.34305 22.0692L6.42913 22.6652C6.16941 22.8342 5.85848 22.8938 5.55319 22.8327C5.2479 22.7716 4.9847 22.5971 4.81285 22.3412C4.64079 22.0855 4.58003 21.7789 4.64209 21.4783C4.70415 21.1776 4.88142 20.9187 5.14136 20.7492L6.4645 19.8864C6.66825 19.7538 6.72401 19.4837 6.58905 19.2832C6.50399 19.1567 6.36339 19.0881 6.21997 19.0881C6.13621 19.0881 6.05137 19.1116 5.9763 19.1605L5.77147 19.294L5.06281 19.7561C4.52622 20.1058 3.80108 19.9608 3.44588 19.4327C3.09069 18.9044 3.23802 18.1905 3.77439 17.8406L4.43531 17.4097C4.43878 17.4075 4.44225 17.4052 4.44572 17.4028L5.09753 16.9779C5.30127 16.8453 5.35704 16.5751 5.22208 16.3745C5.13702 16.248 4.99642 16.1794 4.85299 16.1794C4.76924 16.1794 4.6844 16.2029 4.60933 16.2518L4.4045 16.3854C4.4045 16.3854 4.4045 16.3856 4.40428 16.3856L3.69563 16.8474C3.4359 17.0168 3.12475 17.0766 2.81925 17.0153C2.51374 16.9544 2.25076 16.7797 2.07869 16.524C1.90685 16.2683 1.84631 15.9617 1.90836 15.6612Z" fill="#EC1A25" stroke="#EC1A25"/>
</g>
<defs>
<clipPath id="clip0_1728_70">
<rect width="30" height="30" fill="white" transform="translate(30 30) rotate(-180)"/>
</clipPath>
</defs>
</svg>
